<?xml version="1.0" encoding="utf-8"?>
<!-- Generator: Adobe Illustrator 16.0.4, SVG Export Plug-In . SVG Version: 6.00 Build 0)  -->
<!DOCTYPE svg PUBLIC "-//W3C//DTD SVG 1.1//EN" "http://www.w3.org/Graphics/SVG/1.1/DTD/svg11.dtd">
<svg version="1.1" id="Capa_1" xmlns="http://www.w3.org/2000/svg" xmlns:xlink="http://www.w3.org/1999/xlink" x="0px" y="0px"
	 width="32px" height="32px" viewBox="0 0 32 32" enable-background="new 0 0 32 32" xml:space="preserve">
<g>
	<path d="M26,1.999V0H3C2.916,0.004,2.293-0.008,1.555,0.354C0.807,0.686-0.036,1.645-0.001,3C-0.001,3.006,0,3.012,0,3.018V30
		c0,2,2,2,2,2h24V4h-2V1.999H26z M2.996,4C2.983,4,2.946,3.999,2.85,3.982C2.673,3.955,2.416,3.869,2.271,3.743
		C2.135,3.609,2.016,3.5,2,3c0.033-0.647,0.193-0.686,0.448-0.857c0.129-0.065,0.288-0.106,0.403-0.125
		C2.969,1.997,2.998,2.005,3,1.999h19V4H3C2.999,4,2.998,4,2.996,4z M24,30H4V6h20V30z"/>
	<circle cx="14" cy="14" r="4"/>
	<path d="M22,22c0,0,0-2-2-2H8c0,0-2,0-2,2v6h16V22z"/>
</g>
</svg>
