<?xml version="1.0" encoding="utf-8"?>
<!-- Generator: Adobe Illustrator 16.0.4, SVG Export Plug-In . SVG Version: 6.00 Build 0)  -->
<!DOCTYPE svg PUBLIC "-//W3C//DTD SVG 1.1//EN" "http://www.w3.org/Graphics/SVG/1.1/DTD/svg11.dtd">
<svg version="1.1" id="Capa_1" xmlns="http://www.w3.org/2000/svg" xmlns:xlink="http://www.w3.org/1999/xlink" x="0px" y="0px"
	 width="32px" height="32px" viewBox="0 0 32 32" enable-background="new 0 0 32 32" xml:space="preserve">
<g>
	<path d="M31.439,19.9c-1.018-2.77-3.35-4.893-6.244-5.619c0.507-2.193,0.803-4.523,0.805-6.878c0-1.789-0.492-3.471-1.35-4.914
		l-0.474-0.797l-0.829,0.41c0,0.001-0.533,0.263-1.359,0.602C20.523,1.047,18.387,0,16,0c-2.387,0-4.527,1.048-5.993,2.707
		c-0.827-0.339-1.36-0.602-1.362-0.6l-0.832-0.41L7.342,2.493C6.488,3.937,6,5.618,6,7.403C6.002,11.15,6.707,14.865,7.906,18
		C4.455,18,4,18,4,18s-4,0.167-4,4c0,2,0,10,0,10h32V22C32,22,31.994,20.932,31.439,19.9z M14.598,19.795
		C14.217,20.792,14,21.869,14,23c0,0.121,0.014,0.24,0.018,0.359c-1.243-0.771-2.476-2.237-3.487-4.303
		c-1.548-3.132-2.534-7.409-2.532-11.654c0-1.104,0.234-2.148,0.655-3.098c1.498,0.656,4.615,1.876,7.345,1.897
		c2.728-0.023,5.847-1.246,7.343-1.902c0.424,0.95,0.657,1.996,0.657,3.102c0.002,2.257-0.291,4.51-0.785,6.607
		C23.143,14.009,23.072,14,23,14c-2.652,0-5.029,1.154-6.677,2.979C16.217,16.984,16.102,17,16,17c-2,0-5-1-5-1
		S11.77,19.007,14.598,19.795z M23,29.883c-3.801-0.009-6.876-3.084-6.885-6.883c0.009-3.801,3.084-6.876,6.885-6.885
		c3.799,0.009,6.874,3.084,6.883,6.885C29.874,26.799,26.799,29.874,23,29.883z"/>
	<path d="M23,10c0,0-1-2-3-2s-3,2-3,2s2,0,3,0S23,10,23,10z"/>
	<path d="M12,8c-2,0-3,2-3,2s2,0,3,0s3,0,3,0S14,8,12,8z"/>
	<rect x="22" y="22" width="2" height="6"/>
	<rect x="22" y="18" width="2" height="2"/>
</g>
</svg>
