<?xml version="1.0" encoding="utf-8"?>
<!-- Generator: Adobe Illustrator 16.0.4, SVG Export Plug-In . SVG Version: 6.00 Build 0)  -->
<!DOCTYPE svg PUBLIC "-//W3C//DTD SVG 1.1//EN" "http://www.w3.org/Graphics/SVG/1.1/DTD/svg11.dtd">
<svg version="1.1" id="Capa_1" xmlns="http://www.w3.org/2000/svg" xmlns:xlink="http://www.w3.org/1999/xlink" x="0px" y="0px"
	 width="32px" height="32px" viewBox="0 0 32 32" enable-background="new 0 0 32 32" xml:space="preserve">
<path d="M22,8c-2.32,0-3.965,1.009-4.938,1.857C17.471,5.698,20,4,20,4l-2-1c0,0-2.58,2.587-2.952,6.955C14.09,9.089,12.411,8,10,8
	c-4,0-7,3-6,9c1.315,7.893,5,11,8,11c2,0,4-2,4-2s2,2,4,2c3,0,6.686-3.107,8-11C29,11,26,8,22,8z"/>
</svg>
