<?xml version="1.0" encoding="utf-8"?>
<!-- Generator: Adobe Illustrator 16.0.4, SVG Export Plug-In . SVG Version: 6.00 Build 0)  -->
<!DOCTYPE svg PUBLIC "-//W3C//DTD SVG 1.1//EN" "http://www.w3.org/Graphics/SVG/1.1/DTD/svg11.dtd">
<svg version="1.1" id="Capa_1" xmlns="http://www.w3.org/2000/svg" xmlns:xlink="http://www.w3.org/1999/xlink" x="0px" y="0px"
	 width="32px" height="32px" viewBox="0 0 32 32" enable-background="new 0 0 32 32" xml:space="preserve">
<path d="M32,14v-2H21.895c1.297-1.27,2.104-3.04,2.105-5c-0.002-3.866-3.134-7-7-7s-7,3.134-7,7c0,3.732,2.923,6.772,6.604,6.98
	L12.585,18H0v2h10.109C8.81,21.27,8,23.04,8,25c0.002,3.865,3.135,6.998,7,7c3.865-0.002,6.998-3.135,7-7
	c-0.002-3.73-2.926-6.771-6.606-6.979L19.414,14H32z M20,25c-0.004,2.762-2.238,4.996-4.999,5c-2.761-0.004-4.995-2.238-5.001-5
	c0.006-2.761,2.24-4.995,5.001-5C17.762,20.005,19.996,22.24,20,25z M12,7c0.004-2.761,2.239-4.996,5-5
	c2.762,0.004,4.994,2.239,4.998,5H22c-0.004,2.761-2.238,4.994-5,5C14.239,11.995,12.004,9.762,12,7z"/>
</svg>
