<?xml version="1.0" encoding="utf-8"?>
<!-- Generator: Adobe Illustrator 16.0.4, SVG Export Plug-In . SVG Version: 6.00 Build 0)  -->
<!DOCTYPE svg PUBLIC "-//W3C//DTD SVG 1.1//EN" "http://www.w3.org/Graphics/SVG/1.1/DTD/svg11.dtd">
<svg version="1.1" id="Capa_1" xmlns="http://www.w3.org/2000/svg" xmlns:xlink="http://www.w3.org/1999/xlink" x="0px" y="0px"
	 width="32px" height="32px" viewBox="0 0 32 32" enable-background="new 0 0 32 32" xml:space="preserve">
<path d="M31.645,7.552C31.314,6.807,30.355,5.966,29,6.001c-2-0.002-22-0.002-22,0C6.917,6.005,5.294,5.993,3.551,6.856
	C1.804,7.686-0.035,9.647,0,13c-0.034,3.354,1.805,5.316,3.552,6.145C5.294,20.008,6.917,19.996,7,20h22v-1.998H7
	c0,0-0.283,0.002-0.772-0.083C5.486,17.8,4.387,17.48,3.54,16.768C2.697,16.046,2.016,15,1.999,13
	c0.035-2.646,1.194-3.684,2.448-4.356c0.631-0.315,1.288-0.481,1.78-0.562C6.717,8,6.999,8.008,6.999,8c0,0,20,0,22,0
	c0.647,0.035,0.687,0.195,0.856,0.448c0.063,0.13,0.106,0.286,0.125,0.404C30.002,8.969,29.993,9,30,9l-0.002,4
	c0.002,0,0.004,0.032-0.016,0.147c-0.027,0.179-0.113,0.434-0.239,0.578C29.609,13.863,29.5,13.982,29,13.999
	c-2-0.002-17.981-0.002-18,0c-0.647-0.035-0.686-0.195-0.855-0.447c-0.065-0.132-0.108-0.288-0.127-0.405
	c-0.021-0.117-0.011-0.148-0.019-0.148c0.035-0.646,0.196-0.685,0.449-0.854c0.13-0.066,0.287-0.109,0.404-0.128
	C10.969,11.999,11,12.007,11,12.001h15.999v-2h-16c-0.083,0.004-0.707-0.008-1.446,0.354C8.805,10.686,7.965,11.647,8,13
	c0.004,0.084-0.008,0.707,0.355,1.446c0.33,0.746,1.291,1.588,2.645,1.553c0,0,16,0,18,0c1.355,0.035,2.314-0.806,2.645-1.553
	c0.362-0.74,0.35-1.362,0.354-1.446l0.002-4C31.995,8.916,32.007,8.294,31.645,7.552z"/>
</svg>
