<?xml version="1.0" encoding="utf-8"?>
<!-- Generator: Adobe Illustrator 16.0.4, SVG Export Plug-In . SVG Version: 6.00 Build 0)  -->
<!DOCTYPE svg PUBLIC "-//W3C//DTD SVG 1.1//EN" "http://www.w3.org/Graphics/SVG/1.1/DTD/svg11.dtd">
<svg version="1.1" id="Capa_1" xmlns="http://www.w3.org/2000/svg" xmlns:xlink="http://www.w3.org/1999/xlink" x="0px" y="0px"
	 width="32px" height="32px" viewBox="0 0 32 32" enable-background="new 0 0 32 32" xml:space="preserve">
<g>
	<path d="M26,1.999V0H3C2.916,0.004,2.293-0.008,1.555,0.354C0.808,0.686-0.035,1.645-0.001,3C-0.001,3.006,0,3.012,0,3.018V30
		c0,2,2,2,2,2h24V4h-2V1.999H26z M2.996,4C2.983,4,2.946,3.999,2.85,3.982C2.673,3.955,2.416,3.869,2.271,3.743
		C2.135,3.609,2.016,3.5,2,3c0.033-0.647,0.193-0.686,0.448-0.857c0.129-0.065,0.288-0.106,0.403-0.125
		C2.969,1.997,2.998,2.005,3,1.999h19V4H3C2.999,4,2.998,4,2.996,4z M24,30H4V6h20V30z"/>
	<path d="M9,22c1.655,0,3-1.344,3-3v-7.72l6,1.501v5.402c-0.312-0.11-0.646-0.185-1-0.185c-1.657,0-3,1.347-3,3c0,1.657,1.343,3,3,3
		c1.654,0,3-1.343,3-3v-9.78L10,8.721v7.462C9.686,16.072,9.353,16,9,16c-1.657,0-3,1.346-3,3C6,20.656,7.343,22,9,22z"/>
</g>
</svg>
