<?xml version="1.0" encoding="utf-8"?>
<!-- Generator: Adobe Illustrator 16.0.4, SVG Export Plug-In . SVG Version: 6.00 Build 0)  -->
<!DOCTYPE svg PUBLIC "-//W3C//DTD SVG 1.1//EN" "http://www.w3.org/Graphics/SVG/1.1/DTD/svg11.dtd">
<svg version="1.1" id="Capa_1" xmlns="http://www.w3.org/2000/svg" xmlns:xlink="http://www.w3.org/1999/xlink" x="0px" y="0px"
	 width="32px" height="32px" viewBox="0 0 32 32" enable-background="new 0 0 32 32" xml:space="preserve">
<g>
	<path d="M28,18h-3.908c1.2-3.135,1.905-6.85,1.908-10.597c0-1.789-0.492-3.471-1.35-4.914l-0.474-0.797l-0.829,0.41
		c0,0.001-0.533,0.263-1.359,0.602C20.523,1.047,18.387,0,16,0c-2.387,0-4.527,1.048-5.993,2.707c-0.827-0.339-1.36-0.602-1.362-0.6
		l-0.832-0.41L7.342,2.493C6.488,3.937,6,5.618,6,7.403C6.002,11.15,6.707,14.865,7.906,18C4.455,18,4,18,4,18s-4,0.167-4,4
		c0,2,0,10,0,10h32V22C32,22,32,18,28,18z M21.467,19.059c-1.555,3.172-3.632,4.986-5.468,4.941
		c-1.836,0.045-3.914-1.771-5.468-4.941c-1.548-3.133-2.534-7.41-2.532-11.655c0-1.104,0.234-2.148,0.655-3.098
		c1.498,0.656,4.615,1.876,7.345,1.897c2.728-0.023,5.847-1.246,7.343-1.902c0.424,0.95,0.657,1.996,0.657,3.102
		C24.003,11.648,23.016,15.926,21.467,19.059z"/>
	<path d="M11,16c0,0,1,4,5,4c3.917,0,5-4,5-4s-3,1-5,1S11,16,11,16z"/>
	<path d="M15,10c0,0-1-2-3-2s-3,2-3,2s2,0,3,0S15,10,15,10z"/>
	<path d="M20,8c-2,0-3,2-3,2s2,0,3,0s3,0,3,0S22,8,20,8z"/>
</g>
</svg>
