<?xml version="1.0" encoding="utf-8"?>
<!-- Generator: Adobe Illustrator 16.0.4, SVG Export Plug-In . SVG Version: 6.00 Build 0)  -->
<!DOCTYPE svg PUBLIC "-//W3C//DTD SVG 1.1//EN" "http://www.w3.org/Graphics/SVG/1.1/DTD/svg11.dtd">
<svg version="1.1" id="Capa_1" xmlns="http://www.w3.org/2000/svg" xmlns:xlink="http://www.w3.org/1999/xlink" x="0px" y="0px"
	 width="32px" height="32px" viewBox="0 0 32 32" enable-background="new 0 0 32 32" xml:space="preserve">
<g>
	<path d="M30,0H2v14h21h7V0z M28,12H4V2h24V12z"/>
	<path d="M26,4H6v6h20V4z M12,8H8V6h4V8z"/>
	<polygon points="8,16 2,22 14,22 	"/>
	<path d="M23,14c-4.973,0-9,4.027-9,9c0,0.338,0.022,0.671,0.059,1C10.05,24,2,24,2,24v8h28v-3.352c1.248-1.545,1.999-3.508,2-5.648
		C31.998,18.027,27.971,14,23,14z M8,30H4v-2h4V30z M23,29.883c-3.801-0.009-6.876-3.084-6.885-6.883
		c0.009-3.801,3.084-6.876,6.885-6.884c3.799,0.008,6.874,3.083,6.883,6.884C29.874,26.799,26.799,29.874,23,29.883z"/>
	<rect x="24" y="20" width="2" height="6"/>
	<rect x="20" y="20" width="2" height="6"/>
</g>
</svg>
