<?xml version="1.0" encoding="utf-8"?>
<!-- Generator: Adobe Illustrator 16.0.4, SVG Export Plug-In . SVG Version: 6.00 Build 0)  -->
<!DOCTYPE svg PUBLIC "-//W3C//DTD SVG 1.1//EN" "http://www.w3.org/Graphics/SVG/1.1/DTD/svg11.dtd">
<svg version="1.1" id="Capa_1" xmlns="http://www.w3.org/2000/svg" xmlns:xlink="http://www.w3.org/1999/xlink" x="0px" y="0px"
	 width="32px" height="32px" viewBox="0 0 32 32" enable-background="new 0 0 32 32" xml:space="preserve">
<g>
	<path d="M2.5,22.5l-0.542-0.977C1.263,25.9,1.51,29.51,2,30s4.1,0.736,8.477,0.042c-0.315-0.175-0.64-0.354-0.976-0.542
		C7.015,28.119,3.881,24.984,2.5,22.5z"/>
	<path d="M18,4l-1.354-0.903C13.479,4.097,10.347,5.653,8,8c-2.346,2.346-3.903,5.479-4.902,8.646C3.388,17.081,3.689,17.533,4,18
		c2.209,3.312,6.687,7.791,10,10l1.354,0.902c3.167-1,6.298-2.555,8.646-4.902s3.902-5.479,4.902-8.646
		C28.611,14.918,28.311,14.466,28,14C25.791,10.687,21.312,6.209,18,4z M21.707,13.707C21.512,13.902,21.256,14,21,14
		s-0.512-0.098-0.707-0.293L20,13.414L19.414,14l0.293,0.293c0.391,0.391,0.391,1.023,0,1.414C19.512,15.902,19.256,16,19,16
		s-0.512-0.098-0.707-0.293L18,15.414L17.414,16l0.293,0.293c0.391,0.391,0.391,1.023,0,1.414C17.512,17.902,17.256,18,17,18
		s-0.512-0.098-0.707-0.293L16,17.414L15.414,18l0.293,0.293c0.391,0.391,0.391,1.023,0,1.414C15.512,19.902,15.256,20,15,20
		s-0.512-0.098-0.707-0.293L14,19.414L13.414,20l0.293,0.293c0.391,0.391,0.391,1.023,0,1.414C13.512,21.902,13.256,22,13,22
		s-0.512-0.098-0.707-0.293l-2-2c-0.391-0.391-0.391-1.023,0-1.414s1.023-0.391,1.414,0L12,18.586L12.586,18l-0.293-0.293
		c-0.391-0.391-0.391-1.023,0-1.414c0.391-0.391,1.023-0.391,1.414,0L14,16.586L14.586,16l-0.293-0.293
		c-0.391-0.391-0.391-1.023,0-1.414s1.023-0.391,1.414,0L16,14.586L16.586,14l-0.293-0.293c-0.391-0.391-0.391-1.023,0-1.414
		c0.391-0.391,1.023-0.391,1.414,0L18,12.586L18.586,12l-0.293-0.293c-0.391-0.391-0.391-1.023,0-1.414s1.023-0.391,1.414,0l2,2
		C22.098,12.684,22.098,13.316,21.707,13.707z"/>
	<path d="M30,2c-0.49-0.49-4.1-0.737-8.477-0.042C21.839,2.133,22.164,2.313,22.5,2.5c2.484,1.381,5.619,4.515,7,7l0.542,0.976
		C30.736,6.1,30.49,2.49,30,2z"/>
</g>
</svg>
