<?xml version="1.0" encoding="utf-8"?>
<!-- Generator: Adobe Illustrator 16.0.4, SVG Export Plug-In . SVG Version: 6.00 Build 0)  -->
<!DOCTYPE svg PUBLIC "-//W3C//DTD SVG 1.1//EN" "http://www.w3.org/Graphics/SVG/1.1/DTD/svg11.dtd">
<svg version="1.1" id="Capa_1" xmlns="http://www.w3.org/2000/svg" xmlns:xlink="http://www.w3.org/1999/xlink" x="0px" y="0px"
	 width="32px" height="32px" viewBox="0 0 32 32" enable-background="new 0 0 32 32" xml:space="preserve">
<path d="M16,0C7.178,0,0,7.178,0,16c0,8.822,7.178,16,16,16c8.822,0,16-7.178,16-16C32,7.178,24.822,0,16,0z M7.103,22.643
	L6.328,22.2l-0.986,1.737l1.039,0.592c-0.205,0.433-0.4,0.775-0.568,1.045C3.456,23.066,2,19.704,2,16s1.456-7.067,3.813-9.574
	c0.169,0.27,0.366,0.616,0.572,1.051L5.354,8.065l0.981,1.738l0.771-0.438c0.047,0.155,0.093,0.32,0.139,0.486l-0.919,0.252
	l0.519,1.927l0.825-0.225c0.025,0.15,0.052,0.293,0.075,0.449l-0.918,0.074l0.154,1.991l0.96-0.077
	C7.956,14.489,7.969,14.741,7.978,15H7v2h0.978c-0.009,0.259-0.021,0.51-0.037,0.757L6.982,17.68l-0.159,1.991l0.921,0.075
	c-0.022,0.156-0.05,0.3-0.075,0.449l-0.827-0.228l-0.524,1.929l0.926,0.254C7.198,22.318,7.152,22.484,7.103,22.643z M16,30
	c-3.287,0-6.306-1.146-8.698-3.049c0.239-0.35,0.525-0.814,0.824-1.428l0.992,0.563l0.987-1.735l-1.224-0.697
	c0.102-0.305,0.201-0.629,0.295-0.973l1.219,0.336l0.524-1.928l-1.312-0.361c0.047-0.267,0.091-0.537,0.131-0.82l1.184,0.097
	l0.158-1.991L9.934,17.92c0.019-0.299,0.032-0.605,0.042-0.92H11v-2H9.977c-0.01-0.313-0.023-0.62-0.042-0.917l1.147-0.092
	l-0.155-1.993l-1.188,0.096c-0.039-0.283-0.083-0.553-0.13-0.818l1.318-0.36l-0.521-1.93L9.177,9.322
	C9.083,8.98,8.985,8.658,8.884,8.354l1.235-0.702l-0.985-1.74L8.13,6.483c-0.3-0.616-0.588-1.085-0.828-1.434
	C9.694,3.146,12.713,2,16,2c3.286,0,6.307,1.146,8.697,3.049c-0.24,0.349-0.527,0.818-0.828,1.435l-1.004-0.571l-0.984,1.74
	l1.234,0.702c-0.102,0.304-0.199,0.626-0.293,0.968l-1.229-0.336l-0.521,1.93l1.318,0.36c-0.048,0.266-0.092,0.535-0.131,0.818
	l-1.188-0.096l-0.155,1.993l1.146,0.092c-0.019,0.298-0.03,0.604-0.041,0.917h-1.023v2h1.023c0.011,0.313,0.022,0.621,0.041,0.92
	l-1.146,0.095l0.158,1.99l1.184-0.097c0.04,0.284,0.084,0.555,0.132,0.821l-1.312,0.36l0.523,1.927l1.219-0.334
	c0.096,0.344,0.193,0.666,0.296,0.973l-1.224,0.697l0.985,1.734l0.992-0.564c0.299,0.613,0.585,1.08,0.823,1.429
	C22.307,28.854,19.286,30,16,30z M26.188,25.574c-0.17-0.27-0.364-0.612-0.569-1.045l1.039-0.592L25.671,22.2l-0.774,0.442
	c-0.049-0.158-0.096-0.324-0.142-0.492l0.927-0.254l-0.523-1.929l-0.827,0.228c-0.024-0.149-0.054-0.293-0.074-0.449l0.921-0.075
	L25.02,17.68l-0.959,0.077c-0.018-0.247-0.031-0.498-0.039-0.757h0.978v-2h-0.978c0.008-0.259,0.021-0.511,0.037-0.758l0.961,0.077
	l0.153-1.991l-0.918-0.074c0.021-0.156,0.05-0.299,0.074-0.449l0.823,0.225l0.521-1.927l-0.92-0.252
	c0.046-0.166,0.093-0.331,0.14-0.486l0.771,0.438l0.981-1.738l-1.031-0.587c0.205-0.436,0.402-0.782,0.572-1.052
	C28.544,8.932,30,12.296,30,16S28.544,23.066,26.188,25.574z"/>
</svg>
