<svg width="32" xmlns="http://www.w3.org/2000/svg" height="32" viewBox="0 0 32 32" xmlns:xlink="http://www.w3.org/1999/xlink" enable-background="new 0 0 32 32">
<defs/>
<path fill="none" d="m0,0h32v32h-32z"/>
<path d="M27.313,4.687C24.292,1.665,20.273,0,16,0C11.726,0,7.708,1.665,4.687,4.687C1.665,7.708,0,11.726,0,16   c0,4.273,1.665,8.292,4.687,11.313C7.708,30.336,11.726,32,16,32c4.273,0,8.292-1.664,11.313-4.687C30.336,24.292,32,20.273,32,16   C32,11.726,30.336,7.708,27.313,4.687z M15,29.951c-2.861-0.201-5.553-1.252-7.775-3.047l4.257-3.096   c1.007-0.732,2.237-1.202,3.518-1.411V29.951z M17,22.306c1.514,0.076,2.979,0.495,4.114,1.31l4.078,2.926   c-2.299,2.011-5.147,3.196-8.192,3.41V22.306z M22.28,21.99c-1.482-1.062-3.356-1.626-5.28-1.706V17h12.951   c-0.211,3.006-1.367,5.82-3.33,8.104L22.28,21.99z M17,15v-3.334c1.835-0.182,3.631-0.798,5.088-1.858l4.323-3.144   c2.088,2.324,3.321,5.226,3.54,8.336H17z M15,9.675c-1.372-0.127-2.684-0.547-3.72-1.291L6.981,5.302   C9.249,3.384,12.032,2.257,15,2.049V9.675z M17,2.049c2.941,0.207,5.702,1.312,7.959,3.199l-4.047,2.943   C19.803,8.999,18.421,9.472,17,9.643V2.049z M5.534,6.725l4.58,3.285c1.379,0.989,3.102,1.523,4.886,1.661V15H2.049   C2.265,11.917,3.479,9.038,5.534,6.725z M2.049,17H15v3.379c-1.697,0.227-3.342,0.828-4.695,1.812l-4.56,3.316   C3.562,23.156,2.272,20.187,2.049,17z"/>
</svg>
