<?xml version="1.0" encoding="utf-8"?>
<!-- Generator: Adobe Illustrator 16.0.4, SVG Export Plug-In . SVG Version: 6.00 Build 0)  -->
<!DOCTYPE svg PUBLIC "-//W3C//DTD SVG 1.1//EN" "http://www.w3.org/Graphics/SVG/1.1/DTD/svg11.dtd">
<svg version="1.1" id="Capa_1" xmlns="http://www.w3.org/2000/svg" xmlns:xlink="http://www.w3.org/1999/xlink" x="0px" y="0px"
	 width="32px" height="32px" viewBox="0 0 32 32" enable-background="new 0 0 32 32" xml:space="preserve">
<path d="M20.001,1.999V0h-17C2.917,0.006,2.294-0.006,1.554,0.355C0.807,0.685-0.034,1.647,0.001,3c0,0.003,0,0.006,0,0.009V24
	c0,2,2,2,2,2h8v6l3-2l3,2v-6h4V4h-2V1.999H20.001z M2.853,3.981C2.674,3.957,2.417,3.87,2.273,3.743C2.136,3.609,2.016,3.5,2,3
	c0.035-0.646,0.195-0.685,0.448-0.855c0.129-0.066,0.288-0.109,0.405-0.127c0.115-0.021,0.148-0.01,0.148-0.019h13V4h-13
	C3.001,4,2.968,4.002,2.853,3.981z M18.001,24h-14V6h14V24z"/>
</svg>
