<?xml version="1.0" encoding="utf-8"?>
<!-- Generator: Adobe Illustrator 16.0.4, SVG Export Plug-In . SVG Version: 6.00 Build 0)  -->
<!DOCTYPE svg PUBLIC "-//W3C//DTD SVG 1.1//EN" "http://www.w3.org/Graphics/SVG/1.1/DTD/svg11.dtd">
<svg version="1.1" id="Capa_1" xmlns="http://www.w3.org/2000/svg" xmlns:xlink="http://www.w3.org/1999/xlink" x="0px" y="0px"
	 width="32px" height="32px" viewBox="0 0 32 32" enable-background="new 0 0 32 32" xml:space="preserve">
<path d="M26.002,1.999V0h-23C2.918,0.004,2.294-0.008,1.557,0.354C0.809,0.686-0.034,1.645,0.001,3c0,0.006,0.001,0.012,0.001,0.018
	V30c0,2,2,2,2,2h24V4h-2V1.999H26.002z M2.998,4c-0.012,0-0.05-0.001-0.145-0.018C2.674,3.955,2.418,3.869,2.274,3.743
	C2.137,3.609,2.018,3.5,2.002,3c0.033-0.647,0.194-0.686,0.447-0.857c0.13-0.065,0.289-0.106,0.404-0.125
	C2.97,1.997,3,2.005,3.002,1.999h19V4h-19C3.002,4,3,4,2.998,4z M24.002,30h-20V6h20V30z"/>
</svg>
