<?xml version="1.0" encoding="utf-8"?>
<!-- Generator: Adobe Illustrator 16.0.4, SVG Export Plug-In . SVG Version: 6.00 Build 0)  -->
<!DOCTYPE svg PUBLIC "-//W3C//DTD SVG 1.1//EN" "http://www.w3.org/Graphics/SVG/1.1/DTD/svg11.dtd">
<svg version="1.1" id="Capa_1" xmlns="http://www.w3.org/2000/svg" xmlns:xlink="http://www.w3.org/1999/xlink" x="0px" y="0px"
	 width="32px" height="32px" viewBox="0 0 32 32" enable-background="new 0 0 32 32" xml:space="preserve">
<g>
	<path d="M23.001,14c-1.053,0-2.06,0.19-2.998,0.522V4h-2V1.999h2V0h-17C2.918,0.006,2.295-0.006,1.555,0.355
		C0.808,0.685-0.033,1.647,0.002,3c0,0.003,0,0.006,0,0.009V24c0,2,2,2,2,2h8v6l3-2l3,2v-3.348c1.65,2.039,4.17,3.347,6.999,3.347
		C27.973,31.999,32,27.971,32,23C32,18.027,27.973,14,23.001,14z M2.854,3.981C2.675,3.957,2.418,3.87,2.274,3.743
		C2.137,3.609,2.017,3.5,2.001,3c0.035-0.646,0.195-0.685,0.448-0.855c0.129-0.066,0.288-0.109,0.405-0.127
		c0.115-0.021,0.148-0.01,0.148-0.019h13V4h-13C3.002,4,2.97,4.002,2.854,3.981z M4.002,24V6h14v9.515
		C15.59,17.13,14.001,19.878,14.001,23c0,0.338,0.022,0.671,0.059,1H4.002z M23.001,29.999c-3.864-0.008-6.994-3.135-7-6.999
		c0.006-3.865,3.136-6.994,7-7c3.864,0.006,6.991,3.135,6.999,7C29.992,26.864,26.865,29.991,23.001,29.999z"/>
	<path d="M26.337,21.999c-0.063-0.212-0.146-0.413-0.245-0.606l1.188-1.187l-1.416-1.415l-1.165,1.166
		c-0.22-0.123-0.452-0.221-0.697-0.294V18h-2v1.662c-0.229,0.068-0.446,0.158-0.651,0.27l-1.142-1.14l-1.415,1.415l1.141,1.141
		C19.82,21.555,19.73,21.771,19.662,22H18v2h1.662c0.072,0.246,0.172,0.479,0.295,0.698l-1.165,1.163l1.413,1.416l1.188-1.188
		c0.192,0.102,0.395,0.182,0.605,0.245V28H24v-1.665c0.229-0.067,0.445-0.158,0.65-0.271l1.213,1.213l1.414-1.416l-1.213-1.211
		c0.111-0.205,0.201-0.422,0.271-0.65H28v-2.001H26.337z M22.999,24.499c-0.829-0.002-1.498-0.671-1.501-1.5
		c0.003-0.829,0.672-1.498,1.501-1.501c0.829,0.003,1.498,0.672,1.5,1.501C24.497,23.828,23.828,24.497,22.999,24.499z"/>
</g>
</svg>
