<?xml version="1.0" encoding="utf-8"?>
<!-- Generator: Adobe Illustrator 16.0.4, SVG Export Plug-In . SVG Version: 6.00 Build 0)  -->
<!DOCTYPE svg PUBLIC "-//W3C//DTD SVG 1.1//EN" "http://www.w3.org/Graphics/SVG/1.1/DTD/svg11.dtd">
<svg version="1.1" id="Capa_1" xmlns="http://www.w3.org/2000/svg" xmlns:xlink="http://www.w3.org/1999/xlink" x="0px" y="0px"
	 width="32px" height="32px" viewBox="0 0 32 32" enable-background="new 0 0 32 32" xml:space="preserve">
<g>
	<path d="M32,23.001c0-3.917-2.506-7.24-5.998-8.477V4h-2V1.999h2V0h-23C2.918,0.004,2.294-0.008,1.556,0.354
		C0.808,0.686-0.034,1.645,0.001,3c0,0.006,0.001,0.012,0.001,0.018V30c0,2,2,2,2,2h21.081l-0.007-0.004
		C28.014,31.955,32,27.945,32,23.001z M2.853,3.981C2.675,3.955,2.418,3.869,2.274,3.743C2.136,3.609,2.017,3.5,2.002,3
		c0.033-0.646,0.194-0.686,0.447-0.856c0.13-0.065,0.289-0.107,0.404-0.125C2.97,1.997,3,2.005,3.002,1.999h19V4h-19
		C3,4,2.97,4.002,2.853,3.981z M4,30V6h20v8.06C23.671,14.023,23.337,14,22.998,14c-2.143,0-4.105,0.751-5.65,2H6v2h9.516
		c-0.413,0.616-0.743,1.289-0.995,2H6v2h8.057c-0.036,0.329-0.059,0.662-0.059,1.001c0,2.829,1.307,5.351,3.348,6.999H4z M23,30
		c-3.865-0.008-6.994-3.135-7-6.999c0.006-3.865,3.135-6.995,7-7.001c3.865,0.006,6.992,3.136,7,7.001
		C29.992,26.865,26.865,29.992,23,30z"/>
	<rect x="6" y="12" width="16" height="2"/>
	<polygon points="23,26 27,22 19,22 	"/>
</g>
</svg>
