<?xml version="1.0" encoding="utf-8"?>
<!-- Generator: Adobe Illustrator 16.0.4, SVG Export Plug-In . SVG Version: 6.00 Build 0)  -->
<!DOCTYPE svg PUBLIC "-//W3C//DTD SVG 1.1//EN" "http://www.w3.org/Graphics/SVG/1.1/DTD/svg11.dtd">
<svg version="1.1" id="Capa_1" xmlns="http://www.w3.org/2000/svg" xmlns:xlink="http://www.w3.org/1999/xlink" x="0px" y="0px"
	 width="32px" height="32px" viewBox="0 0 32 32" enable-background="new 0 0 32 32" xml:space="preserve">
<g>
	<path d="M32,0H0v28h15.518c1.614,2.411,4.361,3.999,7.482,4c4.971-0.002,8.998-4.029,9-9c0-0.361-0.027-0.718-0.068-1.068L32,22V0z
		 M10,2h12v2H10V2z M6,2h2v2H6V2z M2,2h2v2H2V2z M23,29.883c-3.801-0.009-6.876-3.084-6.885-6.883
		c0.009-3.801,3.084-6.876,6.885-6.885c3.799,0.009,6.874,3.084,6.883,6.885C29.874,26.799,26.799,29.874,23,29.883z M29.999,17.348
		c-0.569-0.705-1.243-1.324-1.999-1.83V14h-4.99c-0.003,0-0.007,0-0.01,0s-0.007,0-0.01,0H18v1.516c-2.412,1.614-4,4.361-4,7.483
		c0,1.054,0.19,2.062,0.523,3H2V6h27.999V17.348z M30,4h-4V2h4V4z"/>
	<rect x="18" y="10" width="10" height="2"/>
	<rect x="4" y="10" width="10" height="10"/>
	<path d="M26.158,21.591c-0.006-0.678-0.088-1.491-0.557-2.259c-0.457-0.779-1.438-1.359-2.602-1.333
		c-1.165-0.026-2.148,0.554-2.605,1.333c-0.47,0.768-0.552,1.581-0.556,2.259c0,0.144,0.007,0.278,0.015,0.409H19v5h8v-5h-0.855
		C26.152,21.869,26.158,21.732,26.158,21.591z M24.139,22h-2.283c-0.01-0.131-0.019-0.268-0.019-0.409
		c-0.004-0.478,0.093-0.958,0.254-1.198c0.173-0.227,0.271-0.365,0.909-0.394c0.637,0.026,0.73,0.165,0.904,0.394
		c0.162,0.24,0.259,0.724,0.253,1.198C24.157,21.736,24.148,21.871,24.139,22z"/>
</g>
</svg>
