<?xml version="1.0" encoding="utf-8"?>
<!-- Generator: Adobe Illustrator 16.0.4, SVG Export Plug-In . SVG Version: 6.00 Build 0)  -->
<!DOCTYPE svg PUBLIC "-//W3C//DTD SVG 1.1//EN" "http://www.w3.org/Graphics/SVG/1.1/DTD/svg11.dtd">
<svg version="1.1" id="Capa_1" xmlns="http://www.w3.org/2000/svg" xmlns:xlink="http://www.w3.org/1999/xlink" x="0px" y="0px"
	 width="32px" height="32px" viewBox="0 0 32 32" enable-background="new 0 0 32 32" xml:space="preserve">
<path d="M32,6V4h-3.102C28.557,2.246,27.277,0,24,0h-8c-1.206,0-3,0.799-3,3H5C3.794,3,2,3.799,2,6c0,0.429,0.083,0.789,0.202,1.116
	C1.132,7.397,0,8.251,0,10c0,0.882,0.294,1.529,0.716,2C0.294,12.471,0,13.118,0,14c0,1.749,1.132,2.603,2.202,2.884
	C2.083,17.211,2,17.571,2,18c0,2.201,1.794,3,3,3h7c0,1.656,1.343,3,3,3c1.656,0,3-1.344,3-3h6c2.299,0,3.368-1.035,3.782-2H32v-2
	h-5l-0.938,0.036l-0.061,0.936C25.989,18.143,25.841,19,24,19h-6.779c-0.549-0.609-1.336-1-2.221-1s-1.672,0.391-2.221,1H5.012
	C4.55,18.988,4,18.806,4,18s0.55-0.988,1-1h8h1v-2h-1H5H3.012C2.55,14.988,2,14.805,2,14s0.55-0.988,1-1h9h1v-2h-1H3.012
	C2.55,10.988,2,10.805,2,10s0.55-0.988,1-1h2h7h3V7h-3H5.012C4.55,6.988,4,6.805,4,6s0.55-0.988,1-1h8.716
	C14.349,5.704,15.277,6,16,6h5.122C21.73,8.345,24.469,9,26,9l0.003-2C25.881,6.999,23,6.958,23,5V4h-6.988
	C15.55,3.988,15,3.805,15,3s0.55-0.988,1-1h8c2.823,0,2.994,2.503,3,3v1H32z"/>
<circle cx="19" cy="15" r="3"/>
<circle cx="21" cy="26" r="3"/>
</svg>
