<?xml version="1.0" encoding="utf-8"?>
<!-- Generator: Adobe Illustrator 16.0.4, SVG Export Plug-In . SVG Version: 6.00 Build 0)  -->
<!DOCTYPE svg PUBLIC "-//W3C//DTD SVG 1.1//EN" "http://www.w3.org/Graphics/SVG/1.1/DTD/svg11.dtd">
<svg version="1.1" id="Capa_1" xmlns="http://www.w3.org/2000/svg" xmlns:xlink="http://www.w3.org/1999/xlink" x="0px" y="0px"
	 width="32px" height="32px" viewBox="0 0 32 32" enable-background="new 0 0 32 32" xml:space="preserve">
<path d="M6,0v32h20V0H6z M11.999,30H8v-2.001h3.999V30z M11.999,26H8v-2h3.999V26z M12,22H7.999v-2H12V22z M12,18H8v-2h4V18z M12,14
	H7.999v-2H12V14z M17.999,30H14v-2.001h3.999V30z M18,26h-4v-2h4V26z M14,22v-2h3.999v2H14z M18,18h-4v-2h4V18z M18,14h-4v-2h4V14z
	 M24,30h-4.001v-6H24V30z M24,22h-4v-2h4V22z M24,18h-4v-2h4V18z M24,14h-4v-2h4V14z M24,8H8V4h16V8z"/>
</svg>
