<?xml version="1.0" encoding="utf-8"?>
<!-- Generator: Adobe Illustrator 16.0.4, SVG Export Plug-In . SVG Version: 6.00 Build 0)  -->
<!DOCTYPE svg PUBLIC "-//W3C//DTD SVG 1.1//EN" "http://www.w3.org/Graphics/SVG/1.1/DTD/svg11.dtd">
<svg version="1.1" id="Capa_1" xmlns="http://www.w3.org/2000/svg" xmlns:xlink="http://www.w3.org/1999/xlink" x="0px" y="0px"
	 width="32px" height="32px" viewBox="0 0 32 32" enable-background="new 0 0 32 32" xml:space="preserve">
<rect x="14.076" y="20" width="2" height="4"/>
<rect x="14.076" y="14" width="2" height="4"/>
<rect x="8.076" y="12" width="6" height="2"/>
<rect x="8.074" y="24" width="6" height="2"/>
<rect x="10.076" y="18" width="4" height="2"/>
<polygon points="22.076,14 22.076,12 20.076,12 18.076,12 18.076,14 20.076,14 20.076,24 18.074,24 18.074,26 20.076,26 22.076,26 
	24.074,26 24.074,24 22.076,24 "/>
<path d="M28.074,1.926V0h-2v1.926h-20V0h-2v1.926H0v30.147h32.146V1.926H28.074z M29.999,29.925H2.148V6h1.926v2h2V6h20v2h2V6h1.925
	V29.925z"/>
</svg>
