<?xml version="1.0" encoding="utf-8"?>
<!-- Generator: Adobe Illustrator 16.0.4, SVG Export Plug-In . SVG Version: 6.00 Build 0)  -->
<!DOCTYPE svg PUBLIC "-//W3C//DTD SVG 1.1//EN" "http://www.w3.org/Graphics/SVG/1.1/DTD/svg11.dtd">
<svg version="1.1" id="Capa_1" xmlns="http://www.w3.org/2000/svg" xmlns:xlink="http://www.w3.org/1999/xlink" x="0px" y="0px"
	 width="32px" height="32px" viewBox="0 0 32 32" enable-background="new 0 0 32 32" xml:space="preserve">
<g>
	<path d="M23,14c-1.055,0-2.061,0.19-3,0.522V12h-8v2H8v-4h2V2H2v8h4v15.999h6V30h5.35c1.545,1.248,3.51,1.999,5.65,2
		c4.971-0.002,8.998-4.029,9-9C31.998,18.027,27.971,14,23,14z M14.058,22H12v2H8.001L8,15.998h4V20h2.522
		C14.296,20.639,14.135,21.307,14.058,22z M23,29.883c-3.801-0.009-6.876-3.084-6.885-6.883c0.009-3.801,3.084-6.876,6.885-6.885
		c3.799,0.009,6.874,3.084,6.883,6.885C29.874,26.799,26.799,29.874,23,29.883z"/>
	<rect x="18" y="22" width="10" height="2"/>
</g>
</svg>
