<?xml version="1.0" encoding="utf-8"?>
<!-- Generator: Adobe Illustrator 16.0.4, SVG Export Plug-In . SVG Version: 6.00 Build 0)  -->
<!DOCTYPE svg PUBLIC "-//W3C//DTD SVG 1.1//EN" "http://www.w3.org/Graphics/SVG/1.1/DTD/svg11.dtd">
<svg version="1.1" id="Capa_1" xmlns="http://www.w3.org/2000/svg" xmlns:xlink="http://www.w3.org/1999/xlink" x="0px" y="0px"
	 width="32px" height="32px" viewBox="0 0 32 32" enable-background="new 0 0 32 32" xml:space="preserve">
<g>
	<path d="M32,15.999C31.998,7.164,24.838,0.002,16,0C7.164,0.002,0.002,7.164,0,15.999C0.002,24.838,7.164,31.998,16,32
		c1.38,0,2.712-0.195,3.986-0.527C20.932,31.807,21.941,32,23,32c4.971,0,8.998-4.029,8.998-9c0-1.057-0.189-2.068-0.525-3.01
		C31.807,18.713,32,17.381,32,15.999z M23,30c-3.865-0.008-6.994-3.135-7-7c0.006-3.865,3.135-6.994,7-7
		c3.863,0.006,6.991,3.134,6.999,7C29.991,26.865,26.863,29.992,23,30z M15.553,17.945c-0.374,0.551-0.681,1.146-0.927,1.772
		c-1.526-0.56-2.622-1.997-2.625-3.718c0.004-2.21,1.79-3.996,3.999-4c1.723,0.003,3.159,1.099,3.721,2.625
		c-0.629,0.247-1.225,0.554-1.775,0.928C17.742,14.665,16.95,14,16.001,14c-1.104,0-2,0.896-2,2
		C14.001,16.949,14.665,17.742,15.553,17.945z M29.934,17.264C28.283,15.271,25.79,14,23,14c-0.449,0-0.887,0.044-1.318,0.107
		C20.889,11.723,18.65,10,16,10c-3.314,0-5.999,2.685-5.999,5.999c0,2.651,1.722,4.89,4.106,5.683C14.044,22.113,14,22.551,14,23
		c0,2.791,1.27,5.283,3.262,6.934c-0.416,0.039-0.836,0.064-1.262,0.064C8.268,29.986,2.015,23.732,2,15.999
		C2.015,8.267,8.268,2.015,16,2c7.732,0.015,13.986,6.267,13.999,13.999C29.998,16.426,29.973,16.848,29.934,17.264z"/>
	<polygon points="19,22 27,22 23,18 	"/>
	<rect x="19" y="24" width="8" height="2"/>
</g>
</svg>
