<?xml version="1.0" encoding="utf-8"?>
<!-- Generator: Adobe Illustrator 16.0.4, SVG Export Plug-In . SVG Version: 6.00 Build 0)  -->
<!DOCTYPE svg PUBLIC "-//W3C//DTD SVG 1.1//EN" "http://www.w3.org/Graphics/SVG/1.1/DTD/svg11.dtd">
<svg version="1.1" id="Capa_1" xmlns="http://www.w3.org/2000/svg" xmlns:xlink="http://www.w3.org/1999/xlink" x="0px" y="0px"
	 width="32px" height="32px" viewBox="0 0 32 32" enable-background="new 0 0 32 32" xml:space="preserve">
<path d="M32.001,16C31.999,7.164,24.838,0.002,16,0C7.164,0.002,0.002,7.164,0,16c0.002,8.838,7.164,16,16,16.001
	c1.38,0,2.712-0.194,3.986-0.528C20.932,31.809,21.941,32,23,32c4.971,0,8.999-4.027,8.999-8.999c0-1.058-0.19-2.067-0.526-3.011
	C31.807,18.714,32.001,17.382,32.001,16z M16,29.999C8.268,29.986,2.015,23.732,2,16C2.015,8.268,8.268,2.015,16,2
	c7.732,0.015,13.986,6.268,13.999,14c-0.001,0.427-0.026,0.848-0.065,1.264c-1.649-1.993-4.144-3.263-6.934-3.263
	c-0.449,0-0.887,0.044-1.318,0.107c-0.793-2.385-3.031-4.107-5.682-4.107c-3.314,0-5.999,2.685-5.999,5.999
	c0,2.65,1.722,4.889,4.106,5.682C14.044,22.113,14,22.552,14,23.001c0,2.79,1.27,5.282,3.262,6.933
	C16.846,29.973,16.426,29.998,16,29.999z M17.945,15.554c-0.203-0.889-0.995-1.553-1.944-1.553c-1.104,0-2,0.896-2,2
	c0,0.949,0.664,1.741,1.552,1.944c-0.374,0.551-0.681,1.146-0.927,1.773c-1.526-0.562-2.622-1.998-2.625-3.72
	C12.005,13.79,13.791,12.004,16,12c1.723,0.003,3.159,1.099,3.721,2.625C19.092,14.872,18.496,15.18,17.945,15.554z M23,30
	c-3.865-0.008-6.994-3.135-7-6.999c0.006-3.865,3.135-6.994,7-7c3.863,0.006,6.991,3.135,6.999,7C29.991,26.865,26.863,29.992,23,30
	z"/>
<path d="M22,27.001h-3v-3L22,27.001z M28,21l-5,5l-3-3l5-5L28,21z"/>
</svg>
