<?xml version="1.0" encoding="utf-8"?>
<!-- Generator: Adobe Illustrator 16.0.4, SVG Export Plug-In . SVG Version: 6.00 Build 0)  -->
<!DOCTYPE svg PUBLIC "-//W3C//DTD SVG 1.1//EN" "http://www.w3.org/Graphics/SVG/1.1/DTD/svg11.dtd">
<svg version="1.1" id="Capa_1" xmlns="http://www.w3.org/2000/svg" xmlns:xlink="http://www.w3.org/1999/xlink" x="0px" y="0px"
	 width="32px" height="32px" viewBox="0 0 32 32" enable-background="new 0 0 32 32" xml:space="preserve">
<g>
	<path d="M16,0C7.164,0.002,0.002,7.164,0,16c0.002,8.838,7.164,16,16,16.001C24.838,31.999,32,24.838,32.001,16
		C31.999,7.164,24.838,0.002,16,0z M16,29.999C8.268,29.986,2.015,23.732,2,16C2.015,8.268,8.268,2.015,16,2
		c7.734,0.015,13.986,6.268,14,14C29.986,23.732,23.732,29.986,16,29.999z"/>
	<path d="M16,10.001c-3.314,0-5.999,2.685-5.999,5.999c0,3.312,2.685,6,5.999,6c3.312,0,6-2.688,6-6
		C22,12.686,19.312,10.001,16,10.001z M16,20.001c-2.209-0.006-3.995-1.792-3.999-4.001c0.004-2.209,1.79-3.995,3.999-3.999
		c2.209,0.004,3.995,1.79,4.001,3.999C19.995,18.209,18.209,19.995,16,20.001z"/>
	<circle cx="16.001" cy="16.001" r="2"/>
</g>
</svg>
