<?xml version="1.0" encoding="utf-8"?>
<!-- Generator: Adobe Illustrator 16.0.4, SVG Export Plug-In . SVG Version: 6.00 Build 0)  -->
<!DOCTYPE svg PUBLIC "-//W3C//DTD SVG 1.1//EN" "http://www.w3.org/Graphics/SVG/1.1/DTD/svg11.dtd">
<svg version="1.1" id="Capa_1" xmlns="http://www.w3.org/2000/svg" xmlns:xlink="http://www.w3.org/1999/xlink" x="0px" y="0px"
	 width="32px" height="32px" viewBox="0 0 32 32" enable-background="new 0 0 32 32" xml:space="preserve">
<g>
	<path d="M12,4v4H0v20h2.413l4.002-4h7.644c0.498,4.499,4.308,7.998,8.941,8c4.971-0.002,8.998-4.029,9-9V4H12z M5.583,22L2,25.583
		V10h16v5.517c-2.15,1.438-3.642,3.78-3.941,6.483H5.583z M23,29.883c-3.801-0.009-6.875-3.084-6.884-6.883
		c0.008-3.801,3.083-6.876,6.884-6.885c3.799,0.009,6.875,3.084,6.883,6.885C29.875,26.799,26.799,29.874,23,29.883z M30,17.35
		C28.352,15.308,25.83,14,23,14c-1.055,0-2.061,0.19-3.002,0.523V8H14V6h16V17.35z"/>
	<path d="M26.158,21.591c-0.006-0.678-0.088-1.491-0.557-2.259c-0.457-0.779-1.438-1.359-2.602-1.333
		c-1.165-0.026-2.148,0.554-2.605,1.333c-0.47,0.768-0.552,1.581-0.556,2.259c0,0.144,0.007,0.278,0.015,0.409H19v5h8v-5h-0.855
		C26.152,21.869,26.158,21.732,26.158,21.591z M24.139,22h-2.283c-0.01-0.131-0.019-0.268-0.019-0.409
		c-0.004-0.478,0.093-0.958,0.254-1.198c0.173-0.227,0.271-0.365,0.909-0.394c0.637,0.026,0.73,0.165,0.904,0.394
		c0.162,0.24,0.259,0.724,0.253,1.198C24.157,21.736,24.148,21.871,24.139,22z"/>
</g>
</svg>
