<?xml version="1.0" encoding="utf-8"?>
<!-- Generator: Adobe Illustrator 16.0.4, SVG Export Plug-In . SVG Version: 6.00 Build 0)  -->
<!DOCTYPE svg PUBLIC "-//W3C//DTD SVG 1.1//EN" "http://www.w3.org/Graphics/SVG/1.1/DTD/svg11.dtd">
<svg version="1.1" id="Capa_1" xmlns="http://www.w3.org/2000/svg" xmlns:xlink="http://www.w3.org/1999/xlink" x="0px" y="0px"
	 width="32px" height="32px" viewBox="0 0 32 32" enable-background="new 0 0 32 32" xml:space="preserve">
<path d="M0,18h26v6H0V18z"/>
<path d="M27,18h2v6h-2V18z"/>
<path d="M30,18h2v6h-2V18z"/>
<path d="M32,16h-2c0-0.041-0.062-4.414-3.447-6.105C20.074,6.655,20,0.27,20,0h2h-1l1-0.003c0.002,0.221,0.102,5.436,5.447,8.109
	C31.948,10.356,32,15.771,32,16z"/>
<path d="M27,16c-0.002-0.092-0.079-2.252-2.336-3.058C10.167,7.764,10,0.314,10,0h2c0.001,0.051,0.312,6.407,13.336,11.058
	C28.932,12.342,28.999,15.852,29,16H27z"/>
</svg>
