<?xml version="1.0" encoding="utf-8"?>
<!-- Generator: Adobe Illustrator 16.0.4, SVG Export Plug-In . SVG Version: 6.00 Build 0)  -->
<!DOCTYPE svg PUBLIC "-//W3C//DTD SVG 1.1//EN" "http://www.w3.org/Graphics/SVG/1.1/DTD/svg11.dtd">
<svg version="1.1" id="Capa_1" xmlns="http://www.w3.org/2000/svg" xmlns:xlink="http://www.w3.org/1999/xlink" x="0px" y="0px"
	 width="32px" height="32px" viewBox="0 0 32 32" enable-background="new 0 0 32 32" xml:space="preserve">
<g>
	<path d="M16,0C7.166,0.002,0.002,7.166,0,16c0.002,8.838,7.166,15.999,16,16.001C24.838,32,31.999,24.838,32.001,16
		C32,7.166,24.838,0.002,16,0z M16,28C9.376,27.988,4.012,22.626,4,16C4.012,9.378,9.378,4.012,16,4c6.626,0.012,11.986,5.376,12,12
		C27.988,22.629,22.628,27.988,16,28z"/>
	<polygon points="18.001,6.002 14.001,6.001 14.001,18.001 22.001,18.001 22.001,14.001 18.001,14.001 	"/>
</g>
</svg>
