<?xml version="1.0" encoding="utf-8"?>
<!-- Generator: Adobe Illustrator 16.0.4, SVG Export Plug-In . SVG Version: 6.00 Build 0)  -->
<!DOCTYPE svg PUBLIC "-//W3C//DTD SVG 1.1//EN" "http://www.w3.org/Graphics/SVG/1.1/DTD/svg11.dtd">
<svg version="1.1" id="Capa_1" xmlns="http://www.w3.org/2000/svg" xmlns:xlink="http://www.w3.org/1999/xlink" x="0px" y="0px"
	 width="32px" height="32px" viewBox="0 0 32 32" enable-background="new 0 0 32 32" xml:space="preserve">
<g>
	<path d="M16,6C10.486,6,6,10.486,6,16c0,5.514,4.486,10,10,10c5.514,0,10-4.486,10-10C26,10.486,21.514,6,16,6z M16,24
		c-4.411,0-8-3.589-8-8s3.589-8,8-8s8,3.589,8,8S20.411,24,16,24z"/>
	<polygon points="17,10 15,10 15,17 16,17 17,17 20,17 20,15 17,15 	"/>
</g>
</svg>
