<?xml version="1.0" encoding="utf-8"?>
<!-- Generator: Adobe Illustrator 16.0.4, SVG Export Plug-In . SVG Version: 6.00 Build 0)  -->
<!DOCTYPE svg PUBLIC "-//W3C//DTD SVG 1.1//EN" "http://www.w3.org/Graphics/SVG/1.1/DTD/svg11.dtd">
<svg version="1.1" id="Capa_1" xmlns="http://www.w3.org/2000/svg" xmlns:xlink="http://www.w3.org/1999/xlink" x="0px" y="0px"
	 width="32px" height="32px" viewBox="0 0 32 32" enable-background="new 0 0 32 32" xml:space="preserve">
<path d="M31.999,15.999c0-5.519-4.478-9.997-9.998-9.999c-2.256,0-4.331,0.756-6.002,2.015C14.326,6.756,12.254,6.001,10.001,6
	C4.473,6,0,10.48,0,16c0,5.521,4.473,9.998,10.001,10c2.253-0.002,4.326-0.756,5.998-2.016C17.671,25.244,19.745,25.998,22,26
	C27.521,25.998,31.998,21.521,31.999,15.999L31.999,15.999z M10.002,24c-4.424-0.009-7.993-3.583-8.001-8
	c0.008-4.417,3.577-7.991,8-8c1.67,0.003,3.22,0.519,4.502,1.396C12.95,11.159,12,13.465,12,15.999c0,2.535,0.95,4.842,2.504,6.604
	C13.222,23.48,11.672,23.998,10.002,24z M29.999,15.999C29.991,20.417,26.415,23.99,22,24c-1.674-0.004-3.225-0.52-4.507-1.396
	C19.048,20.842,20,18.534,20,16c-0.001-2.535-0.952-4.842-2.507-6.604C18.775,8.519,20.327,8.002,22,8
	C26.414,8.008,29.99,11.585,29.999,15.999L29.999,15.999z"/>
</svg>
