<?xml version="1.0" encoding="utf-8"?>
<!-- Generator: Adobe Illustrator 16.0.4, SVG Export Plug-In . SVG Version: 6.00 Build 0)  -->
<!DOCTYPE svg PUBLIC "-//W3C//DTD SVG 1.1//EN" "http://www.w3.org/Graphics/SVG/1.1/DTD/svg11.dtd">
<svg version="1.1" id="Capa_1" xmlns="http://www.w3.org/2000/svg" xmlns:xlink="http://www.w3.org/1999/xlink" x="0px" y="0px"
	 width="32px" height="32px" viewBox="0 0 32 32" enable-background="new 0 0 32 32" xml:space="preserve">
<g>
	<path d="M30,17.35V2H2v28h2.414l6.002-6h3.643c0.498,4.498,4.309,7.998,8.941,8c4.971-0.002,8.998-4.029,9-9
		C31.999,20.857,31.248,18.895,30,17.35z M14.059,22H9.584L4,27.583V4h24v11.518C26.568,14.56,24.852,14,23,14
		c-2.143,0-4.105,0.751-5.652,2H8v2h7.517C14.735,19.169,14.221,20.531,14.059,22z M23,29.882c-3.801-0.008-6.876-3.083-6.884-6.882
		c0.008-3.801,3.083-6.876,6.884-6.884c3.799,0.008,6.874,3.083,6.882,6.884C29.874,26.799,26.799,29.874,23,29.882z"/>
	<rect x="8" y="8" width="18" height="2"/>
	<polygon points="26,12 8,12 8,14 23,14 26,14 	"/>
	<path d="M26.092,21.393l1.188-1.187l-1.416-1.415l-1.165,1.166c-0.22-0.123-0.452-0.221-0.697-0.294V18h-2v1.662
		c-0.229,0.068-0.446,0.158-0.651,0.27l-1.142-1.14l-1.415,1.415l1.141,1.141C19.82,21.555,19.73,21.771,19.662,22H18v2h1.662
		c0.072,0.246,0.172,0.479,0.295,0.698l-1.165,1.163l1.413,1.416l1.188-1.188c0.192,0.102,0.395,0.182,0.605,0.245V28H24v-1.665
		c0.229-0.067,0.445-0.158,0.65-0.271l1.213,1.213l1.414-1.416l-1.213-1.211c0.111-0.205,0.201-0.422,0.271-0.65H28v-2.001h-1.663
		C26.273,21.787,26.191,21.586,26.092,21.393z M22.999,24.499c-0.829-0.002-1.498-0.671-1.501-1.5
		c0.003-0.829,0.672-1.498,1.501-1.501c0.829,0.003,1.498,0.672,1.5,1.501C24.497,23.828,23.828,24.497,22.999,24.499z"/>
</g>
</svg>
