<?xml version="1.0" encoding="utf-8"?>
<!-- Generator: Adobe Illustrator 16.0.4, SVG Export Plug-In . SVG Version: 6.00 Build 0)  -->
<!DOCTYPE svg PUBLIC "-//W3C//DTD SVG 1.1//EN" "http://www.w3.org/Graphics/SVG/1.1/DTD/svg11.dtd">
<svg version="1.1" id="Capa_1" xmlns="http://www.w3.org/2000/svg" xmlns:xlink="http://www.w3.org/1999/xlink" x="0px" y="0px"
	 width="32px" height="32px" viewBox="0 0 32 32" enable-background="new 0 0 32 32" xml:space="preserve">
<path d="M30,17.35V2H2v28h2.414l6.002-6h3.643c0.498,4.498,4.309,7.998,8.941,8c4.971-0.002,8.998-4.029,9-9
	C31.999,20.857,31.248,18.895,30,17.35z M14.059,22H9.584L4,27.583V4h24v11.518C26.568,14.561,24.852,14,23,14
	c-2.143,0-4.105,0.751-5.652,2H8v2h7.517C14.734,19.169,14.221,20.531,14.059,22z M23,29.882c-3.801-0.008-6.876-3.083-6.885-6.882
	c0.009-3.801,3.084-6.876,6.885-6.885c3.799,0.009,6.874,3.084,6.882,6.885C29.874,26.799,26.799,29.874,23,29.882z"/>
<rect x="8" y="8" width="18" height="2"/>
<polygon points="26,12 8,12 8,14 23,14 26,14 "/>
<path d="M23,26l-3-3l4.999-4.999l3,3.001L23,26z M19,27h3l-3-3V27z"/>
</svg>
