<?xml version="1.0" encoding="utf-8"?>
<!-- Generator: Adobe Illustrator 16.0.4, SVG Export Plug-In . SVG Version: 6.00 Build 0)  -->
<!DOCTYPE svg PUBLIC "-//W3C//DTD SVG 1.1//EN" "http://www.w3.org/Graphics/SVG/1.1/DTD/svg11.dtd">
<svg version="1.1" id="Capa_1" xmlns="http://www.w3.org/2000/svg" xmlns:xlink="http://www.w3.org/1999/xlink" x="0px" y="0px"
	 width="32px" height="32px" viewBox="0 0 32 32" enable-background="new 0 0 32 32" xml:space="preserve">
<g>
	<path d="M32,23c-0.001-3.121-1.589-5.868-4-7.482V2H4v18h10.522c-0.226,0.639-0.387,1.307-0.464,2H4l-4,8h17.35
		c1.545,1.248,3.51,1.999,5.65,2c2.143-0.001,4.104-0.752,5.648-2H32l-1.234-2.469C31.545,26.2,31.999,24.654,32,23z M6,18V4h20
		v10.523C25.061,14.19,24.055,14,23,14c-3.122,0-5.869,1.588-7.483,4H6z M23,29.883c-3.801-0.009-6.876-3.084-6.885-6.883
		c0.009-3.801,3.084-6.876,6.885-6.885c3.799,0.009,6.874,3.084,6.883,6.885C29.874,26.799,26.799,29.874,23,29.883z"/>
	<polygon points="24.002,18 22,18 22,22 18,22 18,24 22,24 22,28 24.002,28 24.002,24 28,24 28,22 24.002,22 	"/>
</g>
</svg>
