<?xml version="1.0" encoding="utf-8"?>
<!-- Generator: Adobe Illustrator 17.0.0, SVG Export Plug-In . SVG Version: 6.00 Build 0)  -->
<!DOCTYPE svg PUBLIC "-//W3C//DTD SVG 1.1//EN" "http://www.w3.org/Graphics/SVG/1.1/DTD/svg11.dtd">
<svg version="1.1" id="Capa_1" xmlns="http://www.w3.org/2000/svg" xmlns:xlink="http://www.w3.org/1999/xlink" x="0px" y="0px"
	 width="32px" height="32px" viewBox="0 0 32 32" enable-background="new 0 0 32 32" xml:space="preserve">
<path d="M28,15.518V2H4v18h10.522c-0.226,0.638-0.387,1.306-0.464,2H4l-4,8h17.349c1.545,1.248,3.51,1.999,5.651,2
	c2.142-0.001,4.104-0.752,5.649-2H32l-1.234-2.469C31.545,26.2,31.999,24.654,32,23C31.999,19.879,30.411,17.132,28,15.518z M6,18V4
	h20v10.523C25.061,14.19,24.054,14,23,14c-3.122,0-5.869,1.588-7.483,4H6z M23,29.883c-3.801-0.009-6.876-3.084-6.885-6.883
	c0.009-3.801,3.084-6.876,6.885-6.885c3.799,0.009,6.874,3.084,6.883,6.885C29.874,26.799,26.799,29.874,23,29.883z M26.092,21.393
	l1.187-1.187l-1.416-1.415l-1.165,1.166c-0.22-0.123-0.452-0.221-0.697-0.294V18h-2v1.662c-0.229,0.068-0.446,0.158-0.652,0.27
	l-1.141-1.14l-1.415,1.415l1.14,1.14c-0.112,0.207-0.202,0.424-0.271,0.653H18v2h1.662c0.073,0.246,0.172,0.479,0.295,0.698
	l-1.165,1.163l1.413,1.416l1.188-1.187c0.192,0.101,0.394,0.182,0.605,0.245V28H24v-1.665c0.229-0.068,0.445-0.158,0.651-0.27
	l1.212,1.212l1.414-1.416l-1.212-1.21c0.111-0.206,0.201-0.423,0.27-0.651H28v-2.001h-1.663
	C26.274,21.787,26.192,21.586,26.092,21.393z M22.999,24.499c-0.829-0.002-1.498-0.671-1.501-1.5
	c0.003-0.829,0.672-1.498,1.501-1.501c0.829,0.003,1.498,0.672,1.5,1.501C24.497,23.828,23.828,24.497,22.999,24.499z"/>
</svg>
