<?xml version="1.0" encoding="utf-8"?>
<!-- Generator: Adobe Illustrator 16.0.4, SVG Export Plug-In . SVG Version: 6.00 Build 0)  -->
<!DOCTYPE svg PUBLIC "-//W3C//DTD SVG 1.1//EN" "http://www.w3.org/Graphics/SVG/1.1/DTD/svg11.dtd">
<svg version="1.1" id="Capa_1" xmlns="http://www.w3.org/2000/svg" xmlns:xlink="http://www.w3.org/1999/xlink" x="0px" y="0px"
	 width="32px" height="32px" viewBox="0 0 32 32" enable-background="new 0 0 32 32" xml:space="preserve">
<path d="M31.514,8.014C31.055,7.028,29.843,5.965,27.999,6H4C2.146,5.965,0.935,7.057,0.48,8.054C-0.006,9.044,0.004,9.916,0,10
	v11.999c0.004,0.083-0.006,0.956,0.48,1.946C0.928,24.927,2.108,26,3.913,26C3.942,26,3.971,26,4,25.999h23.999
	c0.083-0.006,0.956,0.007,1.946-0.481c0.996-0.453,2.089-1.664,2.054-3.519V9.938C31.993,9.852,32.006,8.991,31.514,8.014z
	 M2.033,9.695C2.083,9.376,2.227,8.908,2.5,8.589C2.781,8.276,3.125,8.014,4,8h23.999c1.155,0.035,1.444,0.438,1.733,0.923
	c0.127,0.247,0.199,0.519,0.233,0.723s0.024,0.291,0.032,0.292V10H2C2,10,1.998,9.905,2.033,9.695z M29.999,21.999
	c-0.035,1.146-0.444,1.437-0.947,1.729c-0.255,0.129-0.536,0.203-0.747,0.235c-0.211,0.036-0.306,0.028-0.306,0.034H4
	c-1.147-0.034-1.436-0.443-1.732-0.947c-0.127-0.255-0.2-0.537-0.234-0.75C1.998,22.094,2.006,21.999,2,21.999V14h27.999V21.999z"/>
</svg>
