<?xml version="1.0" encoding="utf-8"?>
<!-- Generator: Adobe Illustrator 16.0.4, SVG Export Plug-In . SVG Version: 6.00 Build 0)  -->
<!DOCTYPE svg PUBLIC "-//W3C//DTD SVG 1.1//EN" "http://www.w3.org/Graphics/SVG/1.1/DTD/svg11.dtd">
<svg version="1.1" id="Capa_1" xmlns="http://www.w3.org/2000/svg" xmlns:xlink="http://www.w3.org/1999/xlink" x="0px" y="0px"
	 width="32px" height="32px" viewBox="0 0 32 32" enable-background="new 0 0 32 32" xml:space="preserve">
<g>
	<path d="M24,14.059V5.584L18.414,0H0v32h24v-0.061c4.499-0.498,7.999-4.308,7.999-8.939S28.499,14.557,24,14.059z M17.998,2.413
		L21.586,6h-3.588V2.413z M2,30V1.998h14v6.001h6v6.06c-3.477,0.385-6.348,2.75-7.477,5.941C10.961,20,6,20,6,20s-2,0-2,2
		c0,1,0,6,0,6h11.518c0.506,0.756,1.125,1.43,1.832,2H2z M23,29.999c-3.865-0.008-6.994-3.135-7-6.999c0.006-3.865,3.135-6.994,7-7
		c3.863,0.006,6.991,3.135,6.999,7C29.991,26.864,26.863,29.991,23,29.999z"/>
	<circle cx="12" cy="14" r="4"/>
	<path d="M26.158,21.591c-0.006-0.678-0.088-1.491-0.557-2.259c-0.457-0.779-1.438-1.359-2.602-1.333
		c-1.165-0.026-2.148,0.554-2.605,1.333c-0.47,0.768-0.552,1.581-0.556,2.259c0,0.144,0.007,0.278,0.015,0.409H19v5h8v-5h-0.855
		C26.152,21.869,26.158,21.732,26.158,21.591z M24.139,22h-2.283c-0.01-0.131-0.019-0.268-0.019-0.409
		c-0.004-0.478,0.093-0.958,0.254-1.198c0.173-0.227,0.271-0.365,0.909-0.394c0.637,0.026,0.73,0.165,0.904,0.394
		c0.162,0.24,0.259,0.724,0.253,1.198C24.157,21.736,24.148,21.871,24.139,22z"/>
</g>
</svg>
