<?xml version="1.0" encoding="utf-8"?>
<!-- Generator: Adobe Illustrator 16.0.4, SVG Export Plug-In . SVG Version: 6.00 Build 0)  -->
<!DOCTYPE svg PUBLIC "-//W3C//DTD SVG 1.1//EN" "http://www.w3.org/Graphics/SVG/1.1/DTD/svg11.dtd">
<svg version="1.1" id="Capa_1" xmlns="http://www.w3.org/2000/svg" xmlns:xlink="http://www.w3.org/1999/xlink" x="0px" y="0px"
	 width="32px" height="32px" viewBox="0 0 32 32" enable-background="new 0 0 32 32" xml:space="preserve">
<g>
	<path d="M29.998,17.348V4.999c0.027-0.272-0.205-1.715-2.102-2.851C26.012,0.997,22.598,0.004,16.002,0
		C9.403,0.004,5.989,0.997,4.103,2.148C2.208,3.283,1.975,4.726,2.002,4.999v22.74c-0.035,0.353,0.305,1.628,2.176,2.524
		C6.045,31.189,9.417,31.994,16,32c1.979-0.002,3.66-0.076,5.104-0.204C21.716,31.927,22.35,32,22.999,32
		c4.972-0.002,8.999-4.029,9.001-9.001C31.999,20.855,31.248,18.893,29.998,17.348z M16,30c-6.414,0.007-9.541-0.82-10.924-1.523
		c-0.694-0.351-0.987-0.648-1.075-0.781c-0.018-0.026,0.009-0.047,0.002-0.062L4,7.783C4.037,7.806,4.065,7.83,4.103,7.852
		C5.989,9.001,9.403,9.993,16.002,10c6.596-0.006,10.01-0.999,11.895-2.147C27.934,7.83,27.963,7.805,28,7.783v7.735
		C26.568,14.561,24.85,14,22.999,14c-4.972,0.002-8.998,4.027-9,9c0.001,2.822,1.301,5.338,3.333,6.988
		C16.902,29.995,16.465,30.001,16,30z M22.999,29.998c-3.865-0.006-6.992-3.133-7-6.999c0.008-3.865,3.135-6.992,7-7
		c3.866,0.008,6.993,3.135,6.999,7C29.992,26.865,26.865,29.992,22.999,29.998z"/>
	<path d="M26.158,21.591c-0.006-0.678-0.088-1.491-0.557-2.259c-0.457-0.779-1.438-1.359-2.602-1.333
		c-1.165-0.026-2.148,0.554-2.605,1.333c-0.47,0.768-0.552,1.581-0.556,2.259c0,0.144,0.007,0.278,0.015,0.409H19v5h8v-5h-0.855
		C26.152,21.869,26.158,21.732,26.158,21.591z M24.139,22h-2.283c-0.01-0.131-0.019-0.268-0.019-0.409
		c-0.004-0.478,0.093-0.958,0.254-1.198c0.173-0.227,0.271-0.365,0.909-0.394c0.637,0.026,0.73,0.165,0.904,0.394
		c0.162,0.24,0.259,0.724,0.253,1.198C24.157,21.736,24.148,21.871,24.139,22z"/>
</g>
</svg>
