<?xml version="1.0" encoding="utf-8"?>
<!-- Generator: Adobe Illustrator 16.0.4, SVG Export Plug-In . SVG Version: 6.00 Build 0)  -->
<!DOCTYPE svg PUBLIC "-//W3C//DTD SVG 1.1//EN" "http://www.w3.org/Graphics/SVG/1.1/DTD/svg11.dtd">
<svg version="1.1" id="Capa_1" xmlns="http://www.w3.org/2000/svg" xmlns:xlink="http://www.w3.org/1999/xlink" x="0px" y="0px"
	 width="32px" height="32px" viewBox="0 0 32 32" enable-background="new 0 0 32 32" xml:space="preserve">
<path d="M27.896,2.148C26.012,0.997,22.598,0.004,16.001,0C9.402,0.004,5.988,0.997,4.103,2.148
	C2.207,3.283,1.975,4.726,2.002,4.999v22.74c-0.035,0.353,0.305,1.628,2.176,2.524C6.045,31.189,9.416,31.994,16,32
	c6.582-0.006,9.955-0.811,11.82-1.736c1.873-0.896,2.213-2.173,2.178-2.524V4.999C30.025,4.727,29.793,3.284,27.896,2.148z
	 M28,27.636c-0.02,0.042-0.076,0.13-0.223,0.271C27.15,28.552,24.43,30.02,16,30c-6.414,0.007-9.541-0.82-10.925-1.523
	C4.381,28.126,4.088,27.828,4,27.695c-0.018-0.026,0.009-0.047,0.002-0.062L4,7.783C4.036,7.806,4.064,7.83,4.103,7.852
	C5.988,9.001,9.402,9.993,16.001,10c6.597-0.006,10.011-0.999,11.896-2.147C27.934,7.83,27.963,7.805,28,7.783V27.636z"/>
</svg>
