<?xml version="1.0" encoding="utf-8"?>
<!-- Generator: Adobe Illustrator 16.0.4, SVG Export Plug-In . SVG Version: 6.00 Build 0)  -->
<!DOCTYPE svg PUBLIC "-//W3C//DTD SVG 1.1//EN" "http://www.w3.org/Graphics/SVG/1.1/DTD/svg11.dtd">
<svg version="1.1" id="Capa_1" xmlns="http://www.w3.org/2000/svg" xmlns:xlink="http://www.w3.org/1999/xlink" x="0px" y="0px"
	 width="32px" height="32px" viewBox="0 0 32 32" enable-background="new 0 0 32 32" xml:space="preserve">
<path d="M22,8h-4V2h-4v6h-4l6,6L22,8z M23,14c-2.143,0-4.105,0.751-5.652,2H2v8h12.059c0.498,4.5,4.308,8,8.941,8
	c4.971,0,9-4.027,9-8.999S27.971,14,23,14z M8,22.001H4v-2h4V22.001z M23,30c-3.865-0.008-6.994-3.135-7-6.999
	c0.006-3.865,3.134-6.995,7-7c3.865,0.006,6.992,3.135,7,7C29.992,26.865,26.865,29.992,23,30z"/>
<path d="M24,20h2v6h-2V20z"/>
<path d="M20,20h2v6h-2V20z"/>
</svg>
