<?xml version="1.0" encoding="utf-8"?>
<!-- Generator: Adobe Illustrator 16.0.4, SVG Export Plug-In . SVG Version: 6.00 Build 0)  -->
<!DOCTYPE svg PUBLIC "-//W3C//DTD SVG 1.1//EN" "http://www.w3.org/Graphics/SVG/1.1/DTD/svg11.dtd">
<svg version="1.1" id="Capa_1" xmlns="http://www.w3.org/2000/svg" xmlns:xlink="http://www.w3.org/1999/xlink" x="0px" y="0px"
	 width="32px" height="32px" viewBox="0 0 32 32" enable-background="new 0 0 32 32" xml:space="preserve">
<g>
	<polygon points="22,8 18,8 18,2 14,2 14,8 10,8 16,14 	"/>
	<path d="M23,14c-2.143,0-4.105,0.751-5.652,2H2v8h12.059c0.498,4.5,4.308,8,8.941,8c4.971,0,9-4.027,9-8.999S27.971,14,23,14z
		 M8,22.001H4v-2h4V22.001z M23,30c-3.865-0.008-6.994-3.135-7-6.999c0.006-3.865,3.135-6.995,7-7c3.863,0.006,6.991,3.135,6.999,7
		C29.991,26.865,26.863,29.992,23,30z"/>
	<path d="M26.158,21.592c-0.006-0.678-0.088-1.49-0.557-2.258c-0.457-0.779-1.438-1.359-2.602-1.333
		c-1.165-0.026-2.148,0.554-2.605,1.333c-0.47,0.768-0.552,1.58-0.556,2.258c0,0.143,0.007,0.278,0.015,0.409H19V27h8v-4.999h-0.855
		C26.152,21.87,26.158,21.734,26.158,21.592z M24.139,22.001h-2.283c-0.01-0.131-0.019-0.269-0.019-0.409
		c-0.004-0.478,0.093-0.958,0.254-1.197c0.173-0.227,0.271-0.365,0.909-0.394c0.637,0.026,0.73,0.165,0.904,0.394
		c0.162,0.239,0.259,0.723,0.253,1.197C24.157,21.736,24.148,21.872,24.139,22.001z"/>
</g>
</svg>
