<?xml version="1.0" encoding="utf-8"?>
<!-- Generator: Adobe Illustrator 16.0.4, SVG Export Plug-In . SVG Version: 6.00 Build 0)  -->
<!DOCTYPE svg PUBLIC "-//W3C//DTD SVG 1.1//EN" "http://www.w3.org/Graphics/SVG/1.1/DTD/svg11.dtd">
<svg version="1.1" id="Capa_1" xmlns="http://www.w3.org/2000/svg" xmlns:xlink="http://www.w3.org/1999/xlink" x="0px" y="0px"
	 width="32px" height="32px" viewBox="0 0 32 32" enable-background="new 0 0 32 32" xml:space="preserve">
<path d="M14,23c0-4.973,4.027-9,9-9c4.971,0,8.998,4.027,9,9c-0.002,4.971-4.029,8.998-9,9C18.027,31.998,14,27.971,14,23z
	 M16.116,23c0.008,3.799,3.083,6.874,6.884,6.883c3.799-0.009,6.874-3.084,6.883-6.883c-0.009-3.801-3.084-6.876-6.883-6.885
	C19.199,16.124,16.124,19.199,16.116,23z"/>
<path d="M22,27h-3v-3L22,27z M28,21l-5,5l-3-3.001l5-5L28,21z"/>
</svg>
