<?xml version="1.0" encoding="utf-8"?>
<!-- Generator: Adobe Illustrator 16.0.4, SVG Export Plug-In . SVG Version: 6.00 Build 0)  -->
<!DOCTYPE svg PUBLIC "-//W3C//DTD SVG 1.1//EN" "http://www.w3.org/Graphics/SVG/1.1/DTD/svg11.dtd">
<svg version="1.1" id="Capa_1" xmlns="http://www.w3.org/2000/svg" xmlns:xlink="http://www.w3.org/1999/xlink" x="0px" y="0px"
	 width="32px" height="32px" viewBox="0 0 32 32" enable-background="new 0 0 32 32" xml:space="preserve">
<g>
	<path d="M28,24c-2.21,0-4,1.79-4,4s1.79,4,4,4s4-1.79,4-4S30.21,24,28,24z M28,30c-1.104-0.002-1.998-0.896-2-2
		c0.002-1.104,0.896-1.998,2-2c1.104,0.002,1.998,0.896,2,2C29.998,29.104,29.104,29.998,28,30z"/>
	<path d="M4,8c2.207-0.002,3.998-1.791,4-4C7.998,1.791,6.207,0,4,0C1.791,0,0,1.791,0,4S1.791,7.998,4,8z M4,2
		c1.103,0.002,1.998,0.895,1.998,2S5.103,5.998,4,5.998C2.895,5.998,2.002,5.105,2,4C2.002,2.895,2.895,2.002,4,2z"/>
	<path d="M28.812,16.58L29.229,16l-0.416-0.583c-0.053-0.032-2.133-3.013-5.631-5.187l2.799-2.797C26.574,7.785,27.26,8,28,8
		c2.208,0,4-1.791,4-4s-1.792-4-4-4s-4,1.791-4,4c0,0.74,0.215,1.424,0.564,2.019l-3.221,3.22C19.764,8.516,17.971,8.02,16,7.999
		c-7.694,0.078-12.73,7.33-12.813,7.379l-0.416,0.581l0.414,0.583c0.052,0.032,2.135,3.034,5.638,5.219l-2.804,2.806
		C5.424,24.215,4.74,24,4,24c-2.208,0-4,1.791-4,4s1.792,4,4,4s4-1.791,4-4c0-0.74-0.215-1.426-0.566-2.021l3.223-3.225
		c1.583,0.727,3.374,1.225,5.343,1.244C23.695,23.918,28.73,16.629,28.812,16.58z M26.357,16.432C24.707,18.331,20.725,22.032,16,22
		c-3.152,0.006-5.96-1.607-7.987-3.29c-1.011-0.836-1.82-1.679-2.372-2.308c-0.142-0.163-0.266-0.309-0.371-0.437
		c0.105-0.125,0.228-0.269,0.369-0.428C7.291,13.649,11.272,9.967,16,10c3.152-0.008,5.963,1.598,7.988,3.272
		c1.01,0.832,1.818,1.67,2.369,2.293c0.143,0.161,0.266,0.307,0.371,0.434C26.623,16.126,26.499,16.271,26.357,16.432z"/>
	<circle cx="16" cy="16" r="4"/>
</g>
</svg>
