<?xml version="1.0" encoding="utf-8"?>
<!-- Generator: Adobe Illustrator 16.0.4, SVG Export Plug-In . SVG Version: 6.00 Build 0)  -->
<!DOCTYPE svg PUBLIC "-//W3C//DTD SVG 1.1//EN" "http://www.w3.org/Graphics/SVG/1.1/DTD/svg11.dtd">
<svg version="1.1" id="Capa_1" xmlns="http://www.w3.org/2000/svg" xmlns:xlink="http://www.w3.org/1999/xlink" x="0px" y="0px"
	 width="32px" height="32px" viewBox="0 0 32 32" enable-background="new 0 0 32 32" xml:space="preserve">
<g>
	<rect x="16" width="4" height="6"/>
	<polygon points="26,13 30,9 26,5 26,8 2,8 2,10.001 26,10.001 	"/>
	<polygon points="14,17 10,13 10,16 2,16 2,17.999 10,17.999 10,21 	"/>
	<path d="M23,14c-1.055,0-2.061,0.19-3,0.522V12h-4v5.348c-1.249,1.545-2,3.51-2,5.652s0.751,4.105,2,5.65V32h4v-0.523
		C20.939,31.809,21.945,32,23,32c4.971-0.002,8.998-4.029,9-9C31.998,18.027,27.971,14,23,14z M23,29.883
		c-3.801-0.01-6.876-3.084-6.885-6.883c0.009-3.801,3.084-6.876,6.885-6.885c3.799,0.008,6.874,3.084,6.883,6.885
		C29.874,26.799,26.799,29.873,23,29.883z"/>
	<path d="M26.337,21.998c-0.063-0.211-0.146-0.412-0.245-0.605l1.188-1.188l-1.416-1.414l-1.165,1.166
		c-0.22-0.123-0.452-0.221-0.697-0.295V18h-2v1.662c-0.229,0.068-0.446,0.158-0.651,0.27l-1.142-1.141l-1.415,1.416l1.141,1.139
		C19.82,21.553,19.73,21.77,19.662,22H18v2h1.662c0.072,0.246,0.172,0.479,0.295,0.697l-1.165,1.164l1.413,1.416l1.188-1.188
		c0.192,0.103,0.395,0.183,0.605,0.246V28H24v-1.666c0.229-0.068,0.445-0.158,0.65-0.27l1.213,1.213l1.414-1.416l-1.213-1.211
		c0.111-0.205,0.201-0.422,0.271-0.65H28v-2.002H26.337z M22.999,24.498c-0.829-0.002-1.498-0.67-1.501-1.5
		c0.003-0.828,0.672-1.498,1.501-1.5c0.829,0.002,1.498,0.672,1.5,1.5C24.497,23.828,23.828,24.496,22.999,24.498z"/>
</g>
</svg>
