<?xml version="1.0" encoding="utf-8"?>
<!-- Generator: Adobe Illustrator 16.0.4, SVG Export Plug-In . SVG Version: 6.00 Build 0)  -->
<!DOCTYPE svg PUBLIC "-//W3C//DTD SVG 1.1//EN" "http://www.w3.org/Graphics/SVG/1.1/DTD/svg11.dtd">
<svg version="1.1" id="Capa_1" xmlns="http://www.w3.org/2000/svg" xmlns:xlink="http://www.w3.org/1999/xlink" x="0px" y="0px"
	 width="32px" height="32px" viewBox="0 0 32 32" enable-background="new 0 0 32 32" xml:space="preserve">
<g>
	<polygon points="26,13 30,9 26,5 26,8 2,8 2,10.001 26,10.001 	"/>
	<rect x="16" width="8" height="6"/>
	<path d="M13,11.999H2v1.999h8.584l-4.293,4.293L4,16v6h6l-2.292-2.292l6-6.002c0.284-0.286,0.371-0.717,0.216-1.089
		C13.77,12.242,13.405,11.999,13,11.999z"/>
	<path d="M24,14.059V12h-8v5.348c-1.249,1.545-2,3.51-2,5.652s0.751,4.105,2,5.65V32h8v-0.059c4.499-0.5,7.998-4.31,8-8.941
		C31.998,18.366,28.499,14.556,24,14.059z M23,29.883c-3.801-0.009-6.876-3.084-6.885-6.883c0.009-3.801,3.084-6.876,6.885-6.884
		c3.799,0.008,6.874,3.083,6.883,6.884C29.874,26.799,26.799,29.874,23,29.883z"/>
	<rect x="24" y="20" width="2" height="6"/>
	<rect x="20" y="20" width="2" height="6"/>
</g>
</svg>
