<?xml version="1.0" encoding="utf-8"?>
<!-- Generator: Adobe Illustrator 16.0.4, SVG Export Plug-In . SVG Version: 6.00 Build 0)  -->
<!DOCTYPE svg PUBLIC "-//W3C//DTD SVG 1.1//EN" "http://www.w3.org/Graphics/SVG/1.1/DTD/svg11.dtd">
<svg version="1.1" id="Capa_1" xmlns="http://www.w3.org/2000/svg" xmlns:xlink="http://www.w3.org/1999/xlink" x="0px" y="0px"
	 width="32px" height="32px" viewBox="0 0 32 32" enable-background="new 0 0 32 32" xml:space="preserve">
<g>
	<path d="M15.999,0C7.164,0.002,0.002,7.164,0,15.999c0.002,8.838,7.164,16,15.999,16.001c8.838-0.002,16-7.163,16.001-16.001
		C31.999,7.164,24.837,0.002,15.999,0z M26.568,25.152l-4.86-4.861l-1.417,1.417l4.861,4.86c-2.453,2.127-5.646,3.425-9.153,3.431
		C8.267,29.986,2.015,23.732,2,15.999C2.007,12.494,3.304,9.3,5.432,6.847l3.861,3.86l1.413-1.413l-3.86-3.861
		C9.3,3.304,12.494,2.007,15.999,2c7.733,0.015,13.987,6.267,14,13.999C29.993,19.505,28.695,22.699,26.568,25.152z"/>
	<polygon points="19.707,7.707 18.293,6.293 8.586,15.998 18.585,15.998 14.293,20.292 12,18 12,24 18,24 15.708,21.708 23.413,14 
		13.414,14 	"/>
</g>
</svg>
