<?xml version="1.0" encoding="utf-8"?>
<!-- Generator: Adobe Illustrator 16.0.4, SVG Export Plug-In . SVG Version: 6.00 Build 0)  -->
<!DOCTYPE svg PUBLIC "-//W3C//DTD SVG 1.1//EN" "http://www.w3.org/Graphics/SVG/1.1/DTD/svg11.dtd">
<svg version="1.1" id="Capa_1" xmlns="http://www.w3.org/2000/svg" xmlns:xlink="http://www.w3.org/1999/xlink" x="0px" y="0px"
	 width="32px" height="32px" viewBox="0 0 32 32" enable-background="new 0 0 32 32" xml:space="preserve">
<path d="M31.999,22.988L32,8h-2V6H10V4H0v28h31.999v-8.988C31.999,23.008,32,23.004,32,23S31.999,22.992,31.999,22.988z M2,29.999V6
	h6v4h21.999v7.348C28.35,15.307,25.829,14,23,14c-4.973,0-9,4.027-9,9c0,2.829,1.307,5.35,3.348,6.999H2z M23,29.883
	c-3.801-0.009-6.876-3.084-6.885-6.883c0.009-3.801,3.084-6.876,6.885-6.884c3.799,0.008,6.874,3.083,6.883,6.884
	C29.874,26.799,26.799,29.874,23,29.883z M29.999,29.999H28.65c0.496-0.399,0.947-0.853,1.349-1.349V29.999z"/>
<path d="M22,27h-3v-3L22,27z M28,21l-5,5l-3-3.001l5-5L28,21z"/>
</svg>
