<?xml version="1.0" encoding="utf-8"?>
<!-- Generator: Adobe Illustrator 16.0.4, SVG Export Plug-In . SVG Version: 6.00 Build 0)  -->
<!DOCTYPE svg PUBLIC "-//W3C//DTD SVG 1.1//EN" "http://www.w3.org/Graphics/SVG/1.1/DTD/svg11.dtd">
<svg version="1.1" id="Capa_1" xmlns="http://www.w3.org/2000/svg" xmlns:xlink="http://www.w3.org/1999/xlink" x="0px" y="0px"
	 width="32px" height="32px" viewBox="0 0 32 32" enable-background="new 0 0 32 32" xml:space="preserve">
<g>
	<path d="M32,8h-2V6H10V4H0v28h31.999v-8.988C31.999,23.008,32,23.004,32,23s-0.001-0.008-0.001-0.012L32,8z M23,29.883
		c-3.801-0.009-6.876-3.084-6.885-6.883c0.009-3.801,3.084-6.876,6.885-6.885c3.799,0.009,6.874,3.084,6.883,6.885
		C29.874,26.799,26.799,29.874,23,29.883z M29.999,29.999H28.65c0.496-0.399,0.947-0.853,1.349-1.349V29.999z M29.999,17.348
		C28.35,15.307,25.829,14,23,14c-4.973,0-9,4.027-9,9c0,2.829,1.307,5.35,3.348,6.999H2V6h6v4h21.999V17.348z"/>
	<path d="M26.337,21.999c-0.063-0.212-0.146-0.413-0.245-0.606l1.188-1.187l-1.416-1.415l-1.165,1.166
		c-0.22-0.123-0.452-0.221-0.697-0.294V18h-2v1.662c-0.229,0.068-0.446,0.158-0.651,0.27l-1.142-1.14l-1.415,1.415l1.141,1.141
		C19.82,21.555,19.73,21.771,19.662,22H18v2h1.662c0.072,0.246,0.172,0.479,0.295,0.698l-1.165,1.163l1.413,1.416l1.188-1.188
		c0.192,0.102,0.395,0.182,0.605,0.245V28H24v-1.665c0.229-0.067,0.445-0.158,0.65-0.271l1.213,1.213l1.414-1.416l-1.213-1.211
		c0.111-0.205,0.201-0.422,0.271-0.65H28v-2.001H26.337z M22.999,24.499c-0.829-0.002-1.498-0.671-1.501-1.5
		c0.003-0.829,0.672-1.498,1.501-1.501c0.829,0.003,1.498,0.672,1.5,1.501C24.497,23.828,23.828,24.497,22.999,24.499z"/>
</g>
</svg>
