<?xml version="1.0" encoding="utf-8"?>
<!-- Generator: Adobe Illustrator 16.0.4, SVG Export Plug-In . SVG Version: 6.00 Build 0)  -->
<!DOCTYPE svg PUBLIC "-//W3C//DTD SVG 1.1//EN" "http://www.w3.org/Graphics/SVG/1.1/DTD/svg11.dtd">
<svg version="1.1" id="Capa_1" xmlns="http://www.w3.org/2000/svg" xmlns:xlink="http://www.w3.org/1999/xlink" x="0px" y="0px"
	 width="32px" height="32px" viewBox="0 0 32 32" enable-background="new 0 0 32 32" xml:space="preserve">
<g>
	<path d="M0,4v24h14v2H8v2h16v-0.061c2.702-0.299,5.042-1.791,6.48-3.939H32V4H0z M23,29.999c-3.865-0.008-6.994-3.135-7-6.999
		c0.006-3.865,3.135-6.994,7-7c3.863,0.006,6.991,3.135,6.999,7C29.991,26.864,26.863,29.991,23,29.999z M30,17.35
		c-0.57-0.707-1.244-1.326-2-1.832V8h-8l6.896,6.896C25.717,14.328,24.398,14,23,14c-4.973,0-9,4.027-9,9
		c0,1.055,0.19,2.061,0.523,3H2V6h28V17.35z"/>
	<polygon points="4,16 4,24 12,24 	"/>
	<polygon points="25,19 23,21 21,19 19,21 21,23 19,25 21,27 23,25 25,27 27,25 25,23 27,21 	"/>
</g>
</svg>
