<?xml version="1.0" encoding="utf-8"?>
<!-- Generator: Adobe Illustrator 16.0.4, SVG Export Plug-In . SVG Version: 6.00 Build 0)  -->
<!DOCTYPE svg PUBLIC "-//W3C//DTD SVG 1.1//EN" "http://www.w3.org/Graphics/SVG/1.1/DTD/svg11.dtd">
<svg version="1.1" id="Capa_1" xmlns="http://www.w3.org/2000/svg" xmlns:xlink="http://www.w3.org/1999/xlink" x="0px" y="0px"
	 width="32px" height="32px" viewBox="0 0 32 32" enable-background="new 0 0 32 32" xml:space="preserve">
<g>
	<path d="M30,8V6H10V4H0v28h31.999L32,8H30z M29.999,29.999H2V6h6v4h21.999V29.999z"/>
	<path d="M8,24c0,2,2,2,2,2s10.641,0,12,0c2,0,2-2,2-2s0-4,0-6s-2-2-2-2h-2l-2-2h-4l-2,2h-2c0,0-2,0-2,2C8,19.068,8,22.705,8,24z
		 M16,18c1.654,0,3,1.344,3,3c0,1.658-1.346,3-3,3c-1.658,0-3-1.342-3-3C13,19.344,14.342,18,16,18z"/>
</g>
</svg>
