<?xml version="1.0" encoding="utf-8"?>
<!-- Generator: Adobe Illustrator 16.0.4, SVG Export Plug-In . SVG Version: 6.00 Build 0)  -->
<!DOCTYPE svg PUBLIC "-//W3C//DTD SVG 1.1//EN" "http://www.w3.org/Graphics/SVG/1.1/DTD/svg11.dtd">
<svg version="1.1" id="Capa_1" xmlns="http://www.w3.org/2000/svg" xmlns:xlink="http://www.w3.org/1999/xlink" x="0px" y="0px"
	 width="32px" height="32px" viewBox="0 0 32 32" enable-background="new 0 0 32 32" xml:space="preserve">
<g>
	<path d="M24,14.059V5.584L18.414,0H0v32h24v-0.059c4.5-0.498,8-4.309,8-8.94C32,18.368,28.5,14.557,24,14.059z M17.998,2.413
		L21.586,6h-3.588V2.413z M2,30V1.998h14v6.001h6v6.06c-0.863,0.095-1.688,0.311-2.461,0.633C18.956,14.013,18,14,18,14h-2l-2-2h-4
		l-2,2H6c0,0-2,0-2,2v6c0,2,2,2,2,2s4.531,0,8.058,0c0.267,2.42,1.493,4.548,3.29,6H2z M14.991,18.907
		c-0.333,0.651-0.589,1.347-0.756,2.077C13.685,21.604,12.892,22,12,22c-1.658,0-3-1.342-3-3c0-1.656,1.342-3,3-3
		C13.624,16,14.94,17.295,14.991,18.907z M23,30c-3.865-0.008-6.995-3.135-7-6.999c0.006-3.865,3.135-6.995,7-7.001
		c3.863,0.006,6.991,3.136,6.999,7.001C29.991,26.865,26.863,29.992,23,30z"/>
	<path d="M26.158,21.591c-0.006-0.678-0.088-1.491-0.557-2.259c-0.457-0.779-1.438-1.359-2.602-1.333
		c-1.165-0.026-2.148,0.554-2.605,1.333c-0.47,0.768-0.552,1.581-0.556,2.259c0,0.144,0.007,0.278,0.015,0.409H19v5h8v-5h-0.855
		C26.152,21.869,26.158,21.732,26.158,21.591z M24.139,22h-2.283c-0.01-0.131-0.019-0.268-0.019-0.409
		c-0.004-0.478,0.093-0.958,0.254-1.198c0.173-0.227,0.271-0.365,0.909-0.394c0.637,0.026,0.73,0.165,0.904,0.394
		c0.162,0.24,0.259,0.724,0.253,1.198C24.157,21.736,24.148,21.871,24.139,22z"/>
</g>
</svg>
