<?xml version="1.0" encoding="utf-8"?>
<!-- Generator: Adobe Illustrator 16.0.4, SVG Export Plug-In . SVG Version: 6.00 Build 0)  -->
<!DOCTYPE svg PUBLIC "-//W3C//DTD SVG 1.1//EN" "http://www.w3.org/Graphics/SVG/1.1/DTD/svg11.dtd">
<svg version="1.1" id="Capa_1" xmlns="http://www.w3.org/2000/svg" xmlns:xlink="http://www.w3.org/1999/xlink" x="0px" y="0px"
	 width="32px" height="32px" viewBox="0 0 32 32" enable-background="new 0 0 32 32" xml:space="preserve">
<g>
	<path fill="#020202" d="M30,10h-6l-4-2h-8.001L8,10H2c0,0-2,0-2,2c0,1.424,0,8,0,10s2,2,2,2s25.281,0,28,0c0,0,2,0.084,2-2
		c0,0,0-7.334,0-10C32,10.125,30,10,30,10z M16,21c-3.316,0-6-1.789-6-4c0-2.208,2.684-4,6-4c3.311,0,6,1.792,6,4
		C22,19.211,19.311,21,16,21z"/>
	<polygon fill="#020202" points="28,4 18,4 18,0 14,0 14,4 4,4 4,6 28,6 	"/>
	<polygon fill="#020202" points="4,28 14,28 14,32 18,32 18,28 28,28 28,26 4,26 	"/>
</g>
</svg>
