<?xml version="1.0" encoding="utf-8"?>
<!-- Generator: Adobe Illustrator 16.0.4, SVG Export Plug-In . SVG Version: 6.00 Build 0)  -->
<!DOCTYPE svg PUBLIC "-//W3C//DTD SVG 1.1//EN" "http://www.w3.org/Graphics/SVG/1.1/DTD/svg11.dtd">
<svg version="1.1" id="Capa_1" xmlns="http://www.w3.org/2000/svg" xmlns:xlink="http://www.w3.org/1999/xlink" x="0px" y="0px"
	 width="32px" height="32px" viewBox="0 0 32 32" enable-background="new 0 0 32 32" xml:space="preserve">
<g>
	<path d="M24,14.059V5.584L18.414,0H0v32h24v-0.059c4.499-0.5,7.998-4.309,8-8.941C31.998,18.366,28.499,14.557,24,14.059z
		 M17.998,2.413L21.586,6h-3.588V2.413z M2,30V1.998h14v6.001h6v6.06c-1.469,0.162-2.831,0.676-4,1.458V12L8,10v8.174
		C7.686,18.062,7.351,18,7,18c-1.658,0-3,1.346-3,3c0,1.656,1.342,3,3,3c1.655,0,3-1.344,3-3v-8l6,1v3.348
		c-0.646,0.799-1.152,1.713-1.496,2.702C13.084,20.288,12,21.516,12,23c0,1.486,1.084,2.713,2.505,2.95
		c0.558,1.604,1.55,3.004,2.845,4.05H2z M23,29.883c-3.801-0.009-6.876-3.084-6.885-6.883c0.009-3.801,3.084-6.876,6.885-6.885
		c3.799,0.009,6.874,3.084,6.883,6.885C29.874,26.799,26.799,29.874,23,29.883z"/>
	<polygon points="19,24 27,24 22.998,20 	"/>
</g>
</svg>
