<?xml version="1.0" encoding="utf-8"?>
<!-- Generator: Adobe Illustrator 16.0.4, SVG Export Plug-In . SVG Version: 6.00 Build 0)  -->
<!DOCTYPE svg PUBLIC "-//W3C//DTD SVG 1.1//EN" "http://www.w3.org/Graphics/SVG/1.1/DTD/svg11.dtd">
<svg version="1.1" id="Capa_1" xmlns="http://www.w3.org/2000/svg" xmlns:xlink="http://www.w3.org/1999/xlink" x="0px" y="0px"
	 width="32px" height="32px" viewBox="0 0 32 32" enable-background="new 0 0 32 32" xml:space="preserve">
<g>
	<path d="M32,23.001c0-3.917-2.506-7.239-5.998-8.478V4h-2V1.999h2V0h-23C2.918,0.004,2.294-0.008,1.556,0.354
		C0.808,0.686-0.034,1.645,0.001,3c0,0.006,0.001,0.012,0.001,0.018V30c0,2,2,2,2,2h21.081l-0.007-0.004
		C28.014,31.955,32,27.945,32,23.001z M2.853,3.981C2.675,3.955,2.418,3.869,2.274,3.743C2.136,3.609,2.017,3.5,2.002,3
		c0.033-0.646,0.194-0.686,0.447-0.856c0.13-0.065,0.289-0.107,0.404-0.125C2.97,1.997,3,2.005,3.002,1.999h19V4h-19
		C3,4,2.97,4.002,2.853,3.981z M4.002,29.999V6h20v8.06C23.673,14.023,23.339,14,23,14c-1.055,0-2.061,0.19-3,0.523V11.22L10,8.723
		v7.461C9.686,16.072,9.353,16,9,16c-1.658,0-3,1.346-3,3c0,1.657,1.342,3,3,3c1.654,0,2.999-1.342,3-2.998v-7.72l6,1.501v2.734
		c-2.412,1.614-4,4.362-4,7.483c0,2.829,1.307,5.35,3.348,6.999H4.002z M23,30.001c-3.865-0.008-6.994-3.135-7-6.999
		c0.006-3.865,3.135-6.995,7-7.001c3.865,0.006,6.992,3.136,7,7.001C29.992,26.866,26.865,29.993,23,30.001z"/>
	<path d="M26.158,21.593c-0.006-0.678-0.088-1.491-0.557-2.259c-0.457-0.779-1.438-1.359-2.602-1.333
		c-1.165-0.026-2.148,0.554-2.605,1.333c-0.47,0.768-0.552,1.581-0.556,2.259c0,0.144,0.007,0.278,0.015,0.409H19v5h8v-5h-0.855
		C26.152,21.871,26.158,21.734,26.158,21.593z M24.139,22.002h-2.283c-0.01-0.131-0.019-0.268-0.019-0.409
		c-0.004-0.478,0.093-0.958,0.254-1.198c0.173-0.227,0.271-0.365,0.909-0.394c0.637,0.026,0.73,0.165,0.904,0.394
		c0.162,0.24,0.259,0.724,0.253,1.198C24.157,21.738,24.148,21.873,24.139,22.002z"/>
</g>
</svg>
