<?xml version="1.0" encoding="utf-8"?>
<!-- Generator: Adobe Illustrator 16.0.4, SVG Export Plug-In . SVG Version: 6.00 Build 0)  -->
<!DOCTYPE svg PUBLIC "-//W3C//DTD SVG 1.1//EN" "http://www.w3.org/Graphics/SVG/1.1/DTD/svg11.dtd">
<svg version="1.1" id="Capa_1" xmlns="http://www.w3.org/2000/svg" xmlns:xlink="http://www.w3.org/1999/xlink" x="0px" y="0px"
	 width="32px" height="32px" viewBox="0 0 32 32" enable-background="new 0 0 32 32" xml:space="preserve">
<g>
	<path d="M8,18.175C7.686,18.062,7.351,18,7,18c-1.658,0-3,1.346-3,3c0,1.657,1.342,3,3,3c1.655,0,3-1.343,3-3v-8l6,1v6.175
		C15.686,20.062,15.352,20,15,20c-1.659,0-3,1.346-3,3c0,1.657,1.342,3,3,3c1.654,0,3-1.343,3-3V12L8,10V18.175z"/>
	<path d="M18.414,0H0v32h24V5.584L18.414,0z M17.998,2.414l3.588,3.587h-3.588V2.414z M22,30H2V1.999h14V8h6V30z"/>
</g>
</svg>
