<?xml version="1.0" encoding="utf-8"?>
<!-- Generator: Adobe Illustrator 17.0.0, SVG Export Plug-In . SVG Version: 6.00 Build 0)  -->
<!DOCTYPE svg PUBLIC "-//W3C//DTD SVG 1.1//EN" "http://www.w3.org/Graphics/SVG/1.1/DTD/svg11.dtd">
<svg version="1.1" id="Capa_1" xmlns="http://www.w3.org/2000/svg" xmlns:xlink="http://www.w3.org/1999/xlink" x="0px" y="0px"
	 width="32px" height="32px" viewBox="0 0 32 32" enable-background="new 0 0 32 32" xml:space="preserve">
<path d="M24,14.059V5.584L18.414,0H0v32h24v-0.059c4.499-0.5,7.998-4.309,8-8.941C31.998,18.366,28.499,14.556,24,14.059z
	 M17.998,2.413L21.586,6h-3.588V2.413z M2,30V1.998h14v6.001h6v6.06c-1.752,0.194-3.352,0.89-4.652,1.941H4v2h11.517
	c-0.412,0.616-0.743,1.289-0.994,2H4v2h10.059C14.022,22.329,14,22.661,14,23c0,2.829,1.308,5.351,3.349,7H2z M23,29.883
	c-3.801-0.009-6.876-3.084-6.885-6.883c0.009-3.801,3.084-6.876,6.885-6.885c3.799,0.009,6.874,3.084,6.883,6.885
	C29.874,26.799,26.799,29.874,23,29.883z M20,14H4v-2h16V14z M26.337,21.999c-0.063-0.212-0.145-0.413-0.245-0.606l1.187-1.187
	l-1.416-1.415l-1.165,1.166c-0.22-0.123-0.452-0.221-0.697-0.294V18h-2v1.662c-0.229,0.068-0.446,0.158-0.652,0.27l-1.141-1.14
	l-1.415,1.415l1.14,1.14c-0.112,0.207-0.202,0.424-0.271,0.653H18v2h1.662c0.073,0.246,0.172,0.479,0.295,0.698l-1.165,1.163
	l1.413,1.416l1.188-1.187c0.192,0.101,0.394,0.182,0.605,0.245V28H24v-1.665c0.229-0.068,0.445-0.158,0.651-0.27l1.212,1.212
	l1.414-1.416l-1.212-1.21c0.111-0.206,0.201-0.423,0.27-0.651H28v-2.001H26.337z M22.999,24.499c-0.829-0.002-1.498-0.671-1.501-1.5
	c0.003-0.829,0.672-1.498,1.501-1.501c0.829,0.003,1.498,0.672,1.5,1.501C24.497,23.828,23.828,24.497,22.999,24.499z"/>
</svg>
