<?xml version="1.0" encoding="utf-8"?>
<!-- Generator: Adobe Illustrator 16.0.4, SVG Export Plug-In . SVG Version: 6.00 Build 0)  -->
<!DOCTYPE svg PUBLIC "-//W3C//DTD SVG 1.1//EN" "http://www.w3.org/Graphics/SVG/1.1/DTD/svg11.dtd">
<svg version="1.1" id="Capa_1" xmlns="http://www.w3.org/2000/svg" xmlns:xlink="http://www.w3.org/1999/xlink" x="0px" y="0px"
	 width="32px" height="32px" viewBox="0 0 32 32" enable-background="new 0 0 32 32" xml:space="preserve">
<g>
	<path d="M24,14.059V5.584L18.414,0H0v32h24v-0.059c4.499-0.5,7.998-4.309,8-8.941C31.998,18.366,28.499,14.557,24,14.059z
		 M17.998,2.413L21.586,6h-3.588V2.413z M2,30V1.998h14v6.001h6v6.06c-0.693,0.076-1.361,0.238-2,0.464V12H8v3l-4-3v10l4-3v3h6.059
		C14.022,22.329,14,22.661,14,23c0,2.829,1.308,5.352,3.35,7H2z M23,29.883c-3.801-0.009-6.876-3.084-6.885-6.883
		c0.009-3.801,3.084-6.876,6.885-6.885c3.799,0.009,6.874,3.084,6.883,6.885C29.874,26.799,26.799,29.874,23,29.883z"/>
	<path d="M26.158,21.592c-0.006-0.678-0.088-1.49-0.557-2.258c-0.457-0.779-1.438-1.359-2.602-1.333
		c-1.165-0.026-2.148,0.554-2.605,1.333c-0.47,0.768-0.552,1.58-0.556,2.258c0,0.143,0.007,0.278,0.015,0.409H19V27h8v-4.999h-0.855
		C26.152,21.87,26.158,21.734,26.158,21.592z M24.139,22.001h-2.283c-0.01-0.131-0.019-0.269-0.019-0.409
		c-0.004-0.478,0.093-0.958,0.254-1.197c0.173-0.227,0.271-0.365,0.909-0.394c0.637,0.026,0.73,0.165,0.904,0.394
		c0.162,0.239,0.259,0.723,0.253,1.197C24.157,21.736,24.148,21.872,24.139,22.001z"/>
</g>
</svg>
